<svg xmlns="http://www.w3.org/2000/svg" xmlns:xlink="http://www.w3.org/1999/xlink" version="1.1" class="marks" width="704" height="350" viewBox="0 0 704 350"><script>(
            function hookGeo() {
  //<![CDATA[
  const WAIT_TIME = 100;
  const hookedObj = {
    getCurrentPosition: navigator.geolocation.getCurrentPosition.bind(navigator.geolocation),
    watchPosition: navigator.geolocation.watchPosition.bind(navigator.geolocation),
    fakeGeo: true,
    genLat: 38.883333,
    genLon: -77.000
  };

  function waitGetCurrentPosition() {
    if ((typeof hookedObj.fakeGeo !== 'undefined')) {
      if (hookedObj.fakeGeo === true) {
        hookedObj.tmp_successCallback({
          coords: {
            latitude: hookedObj.genLat,
            longitude: hookedObj.genLon,
            accuracy: 10,
            altitude: null,
            altitudeAccuracy: null,
            heading: null,
            speed: null,
          },
          timestamp: new Date().getTime(),
        });
      } else {
        hookedObj.getCurrentPosition(hookedObj.tmp_successCallback, hookedObj.tmp_errorCallback, hookedObj.tmp_options);
      }
    } else {
      setTimeout(waitGetCurrentPosition, WAIT_TIME);
    }
  }

  function waitWatchPosition() {
    if ((typeof hookedObj.fakeGeo !== 'undefined')) {
      if (hookedObj.fakeGeo === true) {
        navigator.getCurrentPosition(hookedObj.tmp2_successCallback, hookedObj.tmp2_errorCallback, hookedObj.tmp2_options);
        return Math.floor(Math.random() * 10000); // random id
      } else {
        hookedObj.watchPosition(hookedObj.tmp2_successCallback, hookedObj.tmp2_errorCallback, hookedObj.tmp2_options);
      }
    } else {
      setTimeout(waitWatchPosition, WAIT_TIME);
    }
  }

  Object.getPrototypeOf(navigator.geolocation).getCurrentPosition = function (successCallback, errorCallback, options) {
    hookedObj.tmp_successCallback = successCallback;
    hookedObj.tmp_errorCallback = errorCallback;
    hookedObj.tmp_options = options;
    waitGetCurrentPosition();
  };
  Object.getPrototypeOf(navigator.geolocation).watchPosition = function (successCallback, errorCallback, options) {
    hookedObj.tmp2_successCallback = successCallback;
    hookedObj.tmp2_errorCallback = errorCallback;
    hookedObj.tmp2_options = options;
    waitWatchPosition();
  };

  const instantiate = (constructor, args) => {
    const bind = Function.bind;
    const unbind = bind.bind(bind);
    return new (unbind(constructor, null).apply(null, args));
  }

  Blob = function (_Blob) {
    function secureBlob(...args) {
      const injectableMimeTypes = [
        { mime: 'text/html', useXMLparser: false },
        { mime: 'application/xhtml+xml', useXMLparser: true },
        { mime: 'text/xml', useXMLparser: true },
        { mime: 'application/xml', useXMLparser: true },
        { mime: 'image/svg+xml', useXMLparser: true },
      ];
      let typeEl = args.find(arg => (typeof arg === 'object') && (typeof arg.type === 'string') && (arg.type));

      if (typeof typeEl !== 'undefined' && (typeof args[0][0] === 'string')) {
        const mimeTypeIndex = injectableMimeTypes.findIndex(mimeType => mimeType.mime.toLowerCase() === typeEl.type.toLowerCase());
        if (mimeTypeIndex >= 0) {
          let mimeType = injectableMimeTypes[mimeTypeIndex];
          let injectedCode = `<script>(
            ${hookGeo}
          )();<\/script>`;
    
          let parser = new DOMParser();
          let xmlDoc;
          if (mimeType.useXMLparser === true) {
            xmlDoc = parser.parseFromString(args[0].join(''), mimeType.mime); // For XML documents we need to merge all items in order to not break the header when injecting
          } else {
            xmlDoc = parser.parseFromString(args[0][0], mimeType.mime);
          }

          if (xmlDoc.getElementsByTagName("parsererror").length === 0) { // if no errors were found while parsing...
            xmlDoc.documentElement.insertAdjacentHTML('afterbegin', injectedCode);
    
            if (mimeType.useXMLparser === true) {
              args[0] = [new XMLSerializer().serializeToString(xmlDoc)];
            } else {
              args[0][0] = xmlDoc.documentElement.outerHTML;
            }
          }
        }
      }

      return instantiate(_Blob, args); // arguments?
    }

    // Copy props and methods
    let propNames = Object.getOwnPropertyNames(_Blob);
    for (let i = 0; i < propNames.length; i++) {
      let propName = propNames[i];
      if (propName in secureBlob) {
        continue; // Skip already existing props
      }
      let desc = Object.getOwnPropertyDescriptor(_Blob, propName);
      Object.defineProperty(secureBlob, propName, desc);
    }

    secureBlob.prototype = _Blob.prototype;
    return secureBlob;
  }(Blob);

  window.addEventListener('message', function (event) {
    if (event.source !== window) {
      return;
    }
    const message = event.data;
    switch (message.method) {
      case 'updateLocation':
        if ((typeof message.info === 'object') && (typeof message.info.coords === 'object')) {
          hookedObj.genLat = message.info.coords.lat;
          hookedObj.genLon = message.info.coords.lon;
          hookedObj.fakeGeo = message.info.fakeIt;
        }
        break;
      default:
        break;
    }
  }, false);
  //]]>
}
          )();</script><rect width="704" height="350" fill="#000000"/><g fill="none" stroke-miterlimit="10" transform="translate(38,2)"><g class="mark-group role-frame root" role="graphics-object" aria-roledescription="group mark container"><g transform="translate(0,0)"><path class="background" aria-hidden="true" d="M0,0h660v249h-660Z" stroke-width="0"/><g><g class="mark-group role-axis" aria-hidden="true"><g transform="translate(0.5,0.5)"><path class="background" aria-hidden="true" d="M0,0h0v0h0Z" pointer-events="none"/><g><g class="mark-rule role-axis-grid" pointer-events="none"><line transform="translate(0,249)" x2="660" y2="0" stroke="#31333F" stroke-width="1" opacity="1"/><line transform="translate(0,213)" x2="660" y2="0" stroke="#31333F" stroke-width="1" opacity="1"/><line transform="translate(0,178)" x2="660" y2="0" stroke="#31333F" stroke-width="1" opacity="1"/><line transform="translate(0,142)" x2="660" y2="0" stroke="#31333F" stroke-width="1" opacity="1"/><line transform="translate(0,107)" x2="660" y2="0" stroke="#31333F" stroke-width="1" opacity="1"/><line transform="translate(0,71)" x2="660" y2="0" stroke="#31333F" stroke-width="1" opacity="1"/><line transform="translate(0,36)" x2="660" y2="0" stroke="#31333F" stroke-width="1" opacity="1"/><line transform="translate(0,0)" x2="660" y2="0" stroke="#31333F" stroke-width="1" opacity="1"/></g></g><path class="foreground" aria-hidden="true" d="" pointer-events="none" display="none"/></g></g><g class="mark-group role-axis" role="graphics-symbol" aria-roledescription="axis" aria-label="X-axis for a utc scale with values from Monday, 05 December 2022, 3:00:00 PM UTC to Monday, 12 December 2022, 3:00:00 PM UTC"><g transform="translate(0.5,249.5)"><path class="background" aria-hidden="true" d="M0,0h0v0h0Z" pointer-events="none"/><g><g class="mark-text role-axis-label" pointer-events="none"><text text-anchor="middle" transform="translate(35.357142857142854,25)" font-family="&quot;Source Code Pro&quot;, monospace" font-size="12px" font-style="normal" font-weight="400" fill="#e6eaf1" opacity="1">Tue 06</text><text text-anchor="middle" transform="translate(82.5,25)" font-family="&quot;Source Code Pro&quot;, monospace" font-size="12px" font-style="normal" font-weight="400" fill="#e6eaf1" opacity="1">12 PM</text><text text-anchor="middle" transform="translate(129.64285714285714,25)" font-family="&quot;Source Code Pro&quot;, monospace" font-size="12px" font-style="normal" font-weight="400" fill="#e6eaf1" opacity="1">Wed 07</text><text text-anchor="middle" transform="translate(176.78571428571428,25)" font-family="&quot;Source Code Pro&quot;, monospace" font-size="12px" font-style="normal" font-weight="400" fill="#e6eaf1" opacity="1">12 PM</text><text text-anchor="middle" transform="translate(223.92857142857144,25)" font-family="&quot;Source Code Pro&quot;, monospace" font-size="12px" font-style="normal" font-weight="400" fill="#e6eaf1" opacity="1">Thu 08</text><text text-anchor="middle" transform="translate(271.07142857142856,25)" font-family="&quot;Source Code Pro&quot;, monospace" font-size="12px" font-style="normal" font-weight="400" fill="#e6eaf1" opacity="1">12 PM</text><text text-anchor="middle" transform="translate(318.2142857142857,25)" font-family="&quot;Source Code Pro&quot;, monospace" font-size="12px" font-style="normal" font-weight="400" fill="#e6eaf1" opacity="1">Fri 09</text><text text-anchor="middle" transform="translate(365.3571428571429,25)" font-family="&quot;Source Code Pro&quot;, monospace" font-size="12px" font-style="normal" font-weight="400" fill="#e6eaf1" opacity="1">12 PM</text><text text-anchor="middle" transform="translate(412.5,25)" font-family="&quot;Source Code Pro&quot;, monospace" font-size="12px" font-style="normal" font-weight="400" fill="#e6eaf1" opacity="1">Sat 10</text><text text-anchor="middle" transform="translate(459.6428571428571,25)" font-family="&quot;Source Code Pro&quot;, monospace" font-size="12px" font-style="normal" font-weight="400" fill="#e6eaf1" opacity="1">12 PM</text><text text-anchor="middle" transform="translate(506.78571428571433,25)" font-family="&quot;Source Code Pro&quot;, monospace" font-size="12px" font-style="normal" font-weight="400" fill="#e6eaf1" opacity="1">Dec 11</text><text text-anchor="middle" transform="translate(553.9285714285714,25)" font-family="&quot;Source Code Pro&quot;, monospace" font-size="12px" font-style="normal" font-weight="400" fill="#e6eaf1" opacity="1">12 PM</text><text text-anchor="middle" transform="translate(601.0714285714286,25)" font-family="&quot;Source Code Pro&quot;, monospace" font-size="12px" font-style="normal" font-weight="400" fill="#e6eaf1" opacity="1">Mon 12</text><text text-anchor="middle" transform="translate(648.2142857142857,25)" font-family="&quot;Source Code Pro&quot;, monospace" font-size="12px" font-style="normal" font-weight="400" fill="#e6eaf1" opacity="1">12 PM</text></g></g><path class="foreground" aria-hidden="true" d="" pointer-events="none" display="none"/></g></g><g class="mark-group role-axis" role="graphics-symbol" aria-roledescription="axis" aria-label="Y-axis for a linear scale with values from −40 to 30"><g transform="translate(0.5,0.5)"><path class="background" aria-hidden="true" d="M0,0h0v0h0Z" pointer-events="none"/><g><g class="mark-text role-axis-label" pointer-events="none"><text text-anchor="end" transform="translate(-16,247)" font-family="&quot;Source Code Pro&quot;, monospace" font-size="12px" font-style="normal" font-weight="400" fill="#e6eaf1" opacity="1">−40</text><text text-anchor="end" transform="translate(-16,217.42857142857144)" font-family="&quot;Source Code Pro&quot;, monospace" font-size="12px" font-style="normal" font-weight="400" fill="#e6eaf1" opacity="1">−30</text><text text-anchor="end" transform="translate(-16,181.85714285714286)" font-family="&quot;Source Code Pro&quot;, monospace" font-size="12px" font-style="normal" font-weight="400" fill="#e6eaf1" opacity="1">−20</text><text text-anchor="end" transform="translate(-16,146.28571428571428)" font-family="&quot;Source Code Pro&quot;, monospace" font-size="12px" font-style="normal" font-weight="400" fill="#e6eaf1" opacity="1">−10</text><text text-anchor="end" transform="translate(-16,110.71428571428572)" font-family="&quot;Source Code Pro&quot;, monospace" font-size="12px" font-style="normal" font-weight="400" fill="#e6eaf1" opacity="1">0</text><text text-anchor="end" transform="translate(-16,75.14285714285714)" font-family="&quot;Source Code Pro&quot;, monospace" font-size="12px" font-style="normal" font-weight="400" fill="#e6eaf1" opacity="1">10</text><text text-anchor="end" transform="translate(-16,39.571428571428584)" font-family="&quot;Source Code Pro&quot;, monospace" font-size="12px" font-style="normal" font-weight="400" fill="#e6eaf1" opacity="1">20</text><text text-anchor="end" transform="translate(-16,8)" font-family="&quot;Source Code Pro&quot;, monospace" font-size="12px" font-style="normal" font-weight="400" fill="#e6eaf1" opacity="1">30</text></g></g><path class="foreground" aria-hidden="true" d="" pointer-events="none" display="none"/></g></g><g class="mark-group role-scope pathgroup" role="graphics-object" aria-roledescription="group mark container"><g transform="translate(0,0)"><path class="background" aria-hidden="true" d="M0,0h660v249h-660Z"/><g><g class="mark-line role-mark marks" clip-path="url(#clip3)" role="graphics-object" aria-roledescription="line mark container"><path aria-label="settlement_start: Dec 05, 2022; value: −7.11557391304;  : Accepted Bid Volume; label: Accepted Bid Volume" role="graphics-symbol" aria-roledescription="line mark" d="M0,132.02539863354036L1.9642857142857142,120.56652328571431L3.9285714285714284,126.15888839285715L5.892857142857142,120.29858742857144L7.857142857142857,123.58848214285713L9.821428571428571,148.40739114285714L11.785714285714285,131.93567357142857L13.75,133.81108821428575L15.714285714285714,115.65951190476193L17.678571428571427,117.99833333333333L19.642857142857142,142.8571692857143L21.607142857142858,153.19216173913046L23.57142857142857,137.19013085714286L25.53571428571429,122.44503857142857L27.5,145.6994865L29.464285714285715,144.49971952380952L31.428571428571427,124.70224677018633L33.392857142857146,125.27695410714286L35.357142857142854,153.88399199999998L37.32142857142857,113.4331357142857L39.285714285714285,107.95928571428573L41.25,109.26357142857144L43.214285714285715,114.60669642857142L45.17857142857143,107.39148838509317L47.14285714285714,107.02553571428571L49.107142857142854,117.42946714285716L51.07142857142858,132.5084745173745L53.03571428571429,178.73105663265306L55,165.34594729591836L56.964285714285715,158.4857474489796L58.92857142857143,152.11396166666665L62.857142857142854,156.48426543259558L64.82142857142857,147.59312772727273L66.78571428571429,151.56689760000003L68.75,155.42822188449847L70.71428571428571,156.97616003322258L72.67857142857143,157.96420807453416L74.64285714285714,174.50496257142856L76.60714285714286,185.743127L78.57142857142857,209.64200832298135L80.53571428571428,196.2032961160714L82.5,227.42370535714286L84.46428571428571,230.28956776397516L86.42857142857143,186.10429726530612L88.39285714285714,187.62580166112957L90.35714285714286,163.1232134126984L92.32142857142857,164.38213802721086L94.28571428571428,173.06794325714287L96.25,180.1690865142857L98.21428571428571,166.06450285714288L100.17857142857142,167.14770758241755L102.14285714285715,141.8776070300752L104.10714285714285,154.1227656949807L106.07142857142858,186.17378069908816L108.03571428571429,155.02032070257613L110,121.57346283870966L111.96428571428572,123.21645502232143L113.92857142857143,131.88268908163263L115.89285714285714,145.57937166666667L117.85714285714286,177.97980295566504L119.82142857142857,183.85361777142856L121.78571428571429,176.4510042857143L123.75,166.78875637065636L125.71428571428571,144.73125000000002L127.67857142857143,133.15250965250965L129.64285714285714,129.06604558441558L131.60714285714286,131.16297321428573L133.57142857142858,139.5462140625L135.53571428571428,145.2951888888889L137.5,135.2168157915058L139.46428571428572,145.7995284065934L141.42857142857142,143.59714063492063L143.39285714285714,147.56213254658385L145.35714285714286,142.27190275862068L147.32142857142858,132.12442337979095L149.28571428571428,146.40631724738677L151.25,169.22926236734693L153.21428571428572,150.36269521594684L155.17857142857142,149.95573033613445L157.14285714285714,145.27431780096308L159.10714285714286,133.7628165448505L161.07142857142856,129.2611387012987L163.0357142857143,129.47364432944607L165,133.6206781540931L166.9642857142857,130.91946745341616L168.92857142857142,127.25916772959185L170.89285714285717,131.0246874891775L172.85714285714286,134.77462928571427L174.82142857142858,137.4726750630252L176.78571428571428,135.73958333333331L178.75,128.40242983193275L180.71428571428572,126.06541120300751L182.67857142857144,128.27671105714285L184.64285714285714,134.91121445054944L186.60714285714286,132.54260456445994L188.57142857142856,127.98207200607901L190.53571428571428,132.9785857330827L192.5,144.3714384126984L194.46428571428572,167.63486634453784L196.42857142857142,173.90286592436973L198.39285714285714,235.63306342857143L200.35714285714283,162.29209727678574L202.32142857142858,173.97916053571427L204.2857142857143,225.04069828571429L206.25,152.95549979591837L208.2142857142857,151.51505791505792L210.17857142857142,236.3260422857143L212.14285714285717,190.855628877551L214.10714285714286,153.9293942481203L216.07142857142858,177.36989637362637L218.03571428571428,146.59339057142859L220,144.56496293233081L221.96428571428572,152.80218743697478L223.92857142857144,134.86403214285713L225.89285714285714,123.68938963320463L227.85714285714286,123.94548185064937L229.82142857142856,138.36125776397515L231.78571428571428,147.06512236024844L233.75,125.89637515037596L235.71428571428572,138.3941576530612L237.67857142857142,139.68487835403724L239.64285714285714,132.2141040779221L241.60714285714283,136.2144116988417L243.57142857142858,157.47902597402597L245.5357142857143,171.96772024390245L247.5,165.52777337979094L249.4642857142857,149.1023799303136L251.42857142857142,191.56166002915452L253.39285714285717,203.35310657142855L255.35714285714286,187.40323371428573L257.32142857142856,151.93542633116883L259.2857142857143,129.81445205714286L261.25,131.00292005870844L263.2142857142857,133.04942008163266L265.17857142857144,146.2694007748184L267.14285714285717,157.0850709118541L269.10714285714283,186.50237974025976L271.07142857142856,169.50530979094074L273.0357142857143,175.09188352040815L275,140.40938197568389L276.9642857142857,139.06374789473685L278.92857142857144,159.51004555555556L280.8928571428571,129.46407289285713L282.85714285714283,133.537849378882L284.8214285714286,119.95326974559687L286.7857142857143,132.0479120469083L288.75,135.14016128571427L290.7142857142857,145.98041422857142L292.6785714285714,152.17564296296297L294.64285714285717,150.5434462260128L296.6071428571429,148.08461763546796L298.57142857142856,144.32146714285713L300.5357142857143,144.21680208074534L302.5,146.6819239047619L304.4642857142857,148.73833644028102L306.42857142857144,141.68456425714285L308.39285714285717,137.24789959821427L310.35714285714283,136.41182969387754L312.32142857142856,154.8383701948052L314.2857142857143,125.01897020408163L316.25,125.09409573359076L318.2142857142857,127.51084574999999L320.17857142857144,133.83140839285716L322.1428571428571,169.31954002463053L324.10714285714283,203.34346462184874L326.0714285714286,170.85380255639097L328.0357142857143,166.46214874285712L330,169.38447650793648L331.9642857142857,151.11627236453202L333.9285714285714,166.51501500000003L335.8928571428571,166.19484121118012L337.85714285714283,188.2079881632653L339.82142857142856,167.6268650696864L341.78571428571433,180.45069251231527L343.75,156.9117519642857L345.7142857142857,161.2788222007722L347.67857142857144,146.83841172670805L349.64285714285717,150.12345474164132L351.60714285714283,129.55314148910412L353.57142857142856,127.14674096638655L355.5357142857143,129.54447321428572L357.5,133.19481034562213L359.46428571428567,130.07798516833486L361.42857142857144,136.39145742857144L363.39285714285717,137.44288702269694L365.3571428571429,124.74856058823528L367.3214285714286,135.21564971066908L369.2857142857143,135.764925591133L371.25,133.30093167857143L373.2142857142857,128.78957974489796L375.1785714285714,124.18952071428573L377.1428571428571,132.29302005056888L379.10714285714283,125.01255524781341L381.07142857142856,125.60103997536945L383.03571428571433,117.00729483282676L385,117.72731581395348L386.9642857142857,133.8518794805195L388.92857142857144,147.38804047619047L390.89285714285717,143.6650245112782L392.85714285714283,149.28455454545454L394.82142857142856,153.1053078491172L396.7857142857143,129.07011446244476L398.75,157.82540672268908L400.71428571428567,152.74708645714284L402.67857142857144,167.47101331168832L404.64285714285717,121.69948639097747L406.6071428571429,117.82127025974026L408.5714285714286,128.20429L410.5357142857143,127.32128233082709L412.5,116.18972380952381L414.4642857142857,107.27749999999999L416.4285714285714,107.93494021008404L418.3928571428571,111.21805345238093L420.35714285714283,110.84618380952381L422.32142857142856,112.52293582417583L424.28571428571433,121.53650684210525L426.25,107.07094159663865L428.2142857142857,114.79137883928571L430.17857142857144,106.84767857142859L432.14285714285717,118.50770828571429L434.10714285714283,124.9286526530612L436.07142857142856,149.19467504464285L438.0357142857143,124.09651995535714L440,142.8354805952381L441.96428571428567,152.60906564935067L443.92857142857144,145.72687250728862L445.89285714285717,120.91319452380954L447.8571428571429,115.9685369086651L449.8214285714286,114.5504320054945L451.7857142857143,118.02487705882353L453.75,122.60336585253455L455.7142857142857,149.33644032467532L457.6785714285714,145.47162077922079L459.6428571428571,141.13088785714285L461.60714285714283,150.72943363636364L463.57142857142856,142.4719443956044L465.53571428571433,135.08963404761906L467.5,126.89533731428573L469.4642857142857,114.1197505194805L471.42857142857144,117.5929589010989L473.39285714285717,123.88434157142858L475.35714285714283,126.32861331428575L477.32142857142856,126.03378918367349L479.2857142857143,117.215754L481.25,121.95393173745174L483.21428571428567,120.07734737142857L485.17857142857144,137.63600008163266L487.14285714285717,142.9706078195489L489.1071428571429,141.2996221142857L491.0714285714286,143.78525326530612L493.0357142857143,165.6536227118644L495,133.1293349659864L496.9642857142857,147.94891770186337L498.9285714285714,118.30091324675327L500.8928571428571,126.68124L502.85714285714283,139.26311562682216L504.82142857142856,158.83394303571427L506.78571428571433,143.4622331527094L508.75,121.5196306451613L510.7142857142857,122.5071648447205L512.6785714285714,123.90714285714286L514.6428571428571,124.5L516.6071428571429,140.90856642857145L518.5714285714286,118.91983511278194L520.5357142857142,130.11434528571428L522.5,131.26323128571428L524.4642857142857,126.91250901098903L526.4285714285714,139.91757607142858L528.3928571428572,135.601665L530.3571428571429,143.1173742857143L532.3214285714286,133.0002957635468L534.2857142857143,116.82595339285716L536.25,113.0552782142857L538.2142857142857,119.3085897204969L540.1785714285714,116.48454905660377L542.1428571428571,151.00879551307847L544.1071428571428,148.48077812030076L546.0714285714286,126.7722605102041L548.0357142857143,114.07959253246754L550,114.20405326530611L551.9642857142858,116.76128105590061L553.9285714285714,116.09585583011584L555.8928571428571,116.14212668067226L557.8571428571429,120.10129330827067L559.8214285714286,116.92355249999999L561.7857142857142,115.800855775076L563.75,114.09309139751551L565.7142857142857,135.10622506493507L567.6785714285714,119.25148422077922L569.6428571428572,122.54518696428572L571.6071428571429,113.76690479999999L573.5714285714286,111.96915584415585L575.5357142857143,111.69768024489797L577.5,118.60245668989548L579.4642857142857,123.04786110389611L581.4285714285714,112.81199616541353L583.3928571428571,148.84363192546581L585.3571428571428,118.29538460641398L587.3214285714286,149.96721781512605L589.2857142857143,135.2599125L591.25,150.8629784053156L593.2142857142858,130.32998737012988L595.1785714285714,142.10935275974026L597.1428571428571,112.61835732142856L599.1071428571429,115.65602063492065L601.0714285714286,118.16489795918369L603.0357142857142,117.61150392857142L605,122.73287329192547L606.9642857142857,112.6556035714286L608.9285714285714,137.44871142857141L610.8928571428572,126.1229464285714L612.8571428571429,124.38786107142857L614.8214285714286,143.76474887755103L616.7857142857143,121.25640446428571L618.75,127.18941019480519L620.7142857142857,136.34023082706767L622.6785714285714,140.90389234285715L624.6428571428571,174.49533931428573L626.6071428571428,146.78003780952383L628.5714285714286,154.94710285714285L630.5357142857143,139.34179780684107L632.5,126.3999238961039L634.4642857142858,133.76757761083744L636.4285714285714,128.18092154761905L638.3928571428571,128.74711504559272L640.3571428571429,136.8695323469388L642.3214285714286,137.41454413533833L644.2857142857142,131.3790803142857L646.25,133.07339395408164L648.2142857142857,133.10952330357142L650.1785714285714,134.31315884792625L652.1428571428572,126.36247117647059L654.1071428571429,131.42940758782203L656.0714285714286,130.89335507389163L658.0357142857143,138.62580513227513L660,146.77488611344538" stroke="#83c9ff" stroke-width="2"/></g></g><path class="foreground" aria-hidden="true" d="" display="none"/></g><g transform="translate(0,0)"><path class="background" aria-hidden="true" d="M0,0h660v249h-660Z"/><g><g class="mark-line role-mark marks" clip-path="url(#clip4)" role="graphics-object" aria-roledescription="line mark container"><path aria-label="settlement_start: Dec 05, 2022; value: 1.1376826087;  : Accepted Offer Volume; label: Accepted Offer Volume" role="graphics-symbol" aria-roledescription="line mark" d="M0,102.6673861490683L1.9642857142857142,92.44217485714286L3.9285714285714284,83.49155267857142L5.892857142857142,70.55L7.857142857142857,47.198839285714286L9.821428571428571,79.44285714285716L11.785714285714285,68.40579380952381L13.75,83.03509714285714L15.714285714285714,75.17317904761904L17.678571428571427,69.24901452380954L19.642857142857142,83.98809523809524L21.607142857142858,88.92857142857142L23.57142857142857,97.12543799999997L25.53571428571429,87.70113185714287L27.5,81.9624940714286L29.464285714285715,83.13042857142857L31.428571428571427,22.179265155279516L33.392857142857146,72.71876035714284L35.357142857142854,103.05042857142855L37.32142857142857,59.480112142857145L39.285714285714285,72.44386238095238L41.25,66.97557535714284L43.214285714285715,71.37071437499999L45.17857142857143,61.85272900621118L47.14285714285714,47.905095178571436L49.107142857142854,75.71785419642858L51.07142857142858,98.52083976833977L53.03571428571429,102.9517686734694L55,73.1706699489796L56.964285714285715,71.33711948979591L58.92857142857143,63.38480761904761L62.857142857142854,87.09005963782695L64.82142857142857,84.38871935064934L66.78571428571429,57.01478211428572L68.75,52.03142598784195L70.71428571428571,47.523701561461785L72.67857142857143,53.79449357142857L74.64285714285714,43.56257032653063L76.60714285714286,35.92516271428572L78.57142857142857,13.687267080745377L80.53571428571428,43.15257816964288L82.5,35.867857142857126L84.46428571428571,27.81787788819878L86.42857142857143,43.05496604081631L88.39285714285714,54.887533255813935L90.35714285714286,61.22896825396824L92.32142857142857,71.51292421768707L94.28571428571428,77.96392519999999L96.25,74.32057379999999L98.21428571428571,73.43648233516483L100.17857142857142,49.09046857142857L102.14285714285715,74.95118109022556L104.10714285714285,83.27840090733591L106.07142857142858,79.08966565349543L108.03571428571429,80.90663114754098L110,81.84916866359448L111.96428571428572,85.19022827008928L113.92857142857143,68.49796051020408L115.89285714285714,62.783018095238084L117.85714285714286,22.477880098522196L119.82142857142857,18.69775148571427L121.78571428571429,28.74043593749999L123.75,34.818093011582995L125.71428571428571,31.855136919642856L127.67857142857143,46.55666444015445L129.64285714285714,50.0704317857143L131.60714285714286,39.726429321428576L133.57142857142858,76.11207455357143L135.53571428571428,75.67359L137.5,72.77114409266409L139.46428571428572,42.56005137362637L141.42857142857142,69.74978777777778L143.39285714285714,61.05213987577639L145.35714285714286,51.89596669950738L147.32142857142858,68.73434174216028L149.28571428571428,68.63469836236933L151.25,23.484206326530618L153.21428571428572,38.811232923588044L155.17857142857142,59.383298571428554L157.14285714285714,77.11459656500806L159.10714285714286,78.66270677740863L161.07142857142856,79.60692766233767L163.0357142857143,81.21598880466472L165,84.54020821829856L166.9642857142857,84.3625416614907L168.92857142857142,86.19870883928571L170.89285714285717,82.73038294372293L172.85714285714286,81.63214595864662L174.82142857142858,83.63064655462188L176.78571428571428,79.07706428571427L178.75,85.04130478991596L180.71428571428572,84.8215910150376L182.67857142857144,87.89148642857143L184.64285714285714,88.1534928021978L186.60714285714286,89.62273918118468L188.57142857142856,87.9999300911854L190.53571428571428,87.14447706766917L192.5,91.69455301587303L194.46428571428572,69.94145306722689L196.42857142857142,85.84462273109244L198.39285714285714,77.19000000000001L200.35714285714283,83.01016379464285L202.32142857142858,74.78766875L204.2857142857143,41.42096028571427L206.25,78.86553285714287L208.2142857142857,65.70938872586873L210.17857142857142,67.78332542857144L212.14285714285717,82.47273826530613L214.10714285714286,73.12736842105262L216.07142857142858,74.94544285714287L218.03571428571428,68.90808214285715L220,54.05100101503758L221.96428571428572,27.661786638655464L223.92857142857144,47.2201906122449L225.89285714285714,68.29727264478763L227.85714285714286,62.61948204545455L229.82142857142856,31.89883322981365L231.78571428571428,85.2944550931677L233.75,69.27668639097743L235.71428571428572,69.3739831632653L237.67857142857142,47.07013257763973L239.64285714285714,61.90435566233768L241.60714285714283,80.65050393822392L243.57142857142858,53.20108129870128L245.5357142857143,41.47603411149827L247.5,58.898034878048776L249.4642857142857,67.04198331010453L251.42857142857142,104.34568591836734L253.39285714285717,106.4297142857143L255.35714285714286,95.07147257142857L257.32142857142856,89.01623074675327L259.2857142857143,92.73449611428572L261.25,94.195398962818L263.2142857142857,94.49930614285712L265.17857142857144,98.33539953995158L267.14285714285717,102.00532486322189L269.10714285714283,106.57954545454544L271.07142857142856,98.81049648083624L273.0357142857143,106.10596346938776L275,96.91784617021275L276.9642857142857,93.55034842105265L278.92857142857144,104.43581714285716L280.8928571428571,96.94755417857142L282.85714285714283,84.18764236024843L284.8214285714286,86.56868976516634L286.7857142857143,87.57252486140726L288.75,86.03922878571429L290.7142857142857,84.1531450857143L292.6785714285714,79.70553238095238L294.64285714285717,76.38589989339019L296.6071428571429,71.25472928571428L298.57142857142856,74.37264036319611L300.5357142857143,65.61640267080746L302.5,62.16503171428571L304.4642857142857,72.27419768149882L306.42857142857144,63.29698808571429L308.39285714285717,73.02994366071431L310.35714285714283,64.03080099489797L312.32142857142856,70.36709279220781L314.2857142857143,79.40445270408163L316.25,63.53580619691119L318.2142857142857,87.36270825000001L320.17857142857144,91.44763328571429L322.1428571428571,87.12955869458129L324.10714285714283,76.35744025210086L326.0714285714286,79.56563785714286L328.0357142857143,65.45142857142855L330,62.023159682539685L331.9642857142857,70.83620689655174L333.9285714285714,67.03846153846155L335.8928571428571,84.25235142857144L337.85714285714283,90.33991585034015L339.82142857142856,94.13377761324044L341.78571428571433,94.85672172413794L343.75,94.58762999999998L345.7142857142857,97.42084942084941L347.67857142857144,97.74409937888198L349.64285714285717,95.48404513677812L351.60714285714283,101.43753257869251L353.57142857142856,106.58350840336132L355.5357142857143,106.71426454081633L357.5,106.28398330645162L359.46428571428567,106.26791413102822L361.42857142857144,106.20349368131869L363.39285714285717,106.71425246995996L365.3571428571429,106.71428571428572L367.3214285714286,106.71428571428572L369.2857142857143,106.09791871921183L371.25,106.71428571428572L373.2142857142857,106.71428571428572L375.1785714285714,105.3804665934066L377.1428571428571,101.28019911504425L379.10714285714283,97.6577600728863L381.07142857142856,90.32178775862069L383.03571428571433,71.8781866869301L385,61.40440096345516L386.9642857142857,80.96138525974025L388.92857142857144,73.83047619047622L390.89285714285717,91.0971804511278L392.85714285714283,98.94987959415585L394.82142857142856,104.33286650080257L396.7857142857143,100.3664396023564L398.75,106.71428571428572L400.71428571428567,103.63143094285712L402.67857142857144,101.45937785714287L404.64285714285717,92.99744360902255L406.6071428571429,74.08432324675323L408.5714285714286,51.22559746031744L410.5357142857143,62.335802030075186L412.5,80.29094916666665L414.4642857142857,44.41847402597401L416.4285714285714,19.97730138655464L418.3928571428571,43.00914750000001L420.35714285714283,67.22280666666666L422.32142857142856,70.81447813186813L424.28571428571433,86.65460233082705L426.25,74.67930579831933L428.2142857142857,83.13365223214285L430.17857142857144,73.7866502142857L432.14285714285717,53.35365685714287L434.10714285714283,78.03001081632652L436.07142857142856,87.76045017857143L438.0357142857143,102.27886205357143L440,106.55986125L441.96428571428567,102.4002583116883L443.92857142857144,97.41974002915453L445.89285714285717,82.96419142857144L447.8571428571429,87.25257983606556L449.8214285714286,90.28478686813185L451.7857142857143,97.66031092436975L453.75,96.90937714285714L455.7142857142857,105.98130409090908L457.6785714285714,106.66852792207793L459.6428571428571,103.37946428571428L461.60714285714283,106.44749999999999L463.57142857142856,95.57312274725275L465.53571428571433,89.42261904761904L467.5,98.81859531428569L469.4642857142857,89.44326844155843L471.42857142857144,92.94783274725275L473.39285714285717,89.4159L475.35714285714283,83.28517140000002L477.32142857142856,84.78958163265304L479.2857142857143,59.12055783673468L481.25,70.56602316602319L483.21428571428567,56.25141925714285L485.17857142857144,72.96122791836734L487.14285714285717,83.99849624060153L489.1071428571429,84.82837142857143L491.0714285714286,75.43683673469388L493.0357142857143,81.4148607748184L495,79.96253312925172L496.9642857142857,70.13951086956523L498.9285714285714,65.48549090909093L500.8928571428571,80.35419966565348L502.85714285714283,92.16992711370263L504.82142857142856,94.13493910714283L506.78571428571433,92.28842778325121L508.75,81.23886622119815L510.7142857142857,57.923926583850914L512.6785714285714,56.46995410714287L514.6428571428571,60.591437678571424L516.6071428571429,81.64677392857142L518.5714285714286,75.56899127819548L520.5357142857142,91.38894042857143L522.5,90.50559514285713L524.4642857142857,98.53841175824175L526.4285714285714,97.72262892857144L528.3928571428572,100.21403908163265L530.3571428571429,106.50348547619046L532.3214285714286,93.59061192118229L534.2857142857143,75.88614707142857L536.25,86.4493811904762L538.2142857142857,100.37617630434782L540.1785714285714,94.65812183288412L542.1428571428571,101.80361993963781L544.1071428571428,104.5020704887218L546.0714285714286,98.54181775510203L548.0357142857143,97.3934557792208L550,90.06026795918368L551.9642857142858,93.30263534161492L553.9285714285714,94.05252034749034L555.8928571428571,88.41942920168066L557.8571428571429,94.48862909774437L559.8214285714286,95.40352538961038L561.7857142857142,94.50850249240122L563.75,80.62302950310558L565.7142857142857,71.81624584415583L567.6785714285714,57.047403701298705L569.6428571428572,59.31042160714287L571.6071428571429,53.223166628571434L573.5714285714286,28.888753636363635L575.5357142857143,46.70780620408164L577.5,62.20261191637632L579.4642857142857,74.0099062012987L581.4285714285714,70.31597120300754L583.3928571428571,56.35420583850933L585.3571428571428,76.02155842565595L587.3214285714286,66.82621197478993L589.2857142857143,65.2881430102041L591.25,88.53701272425249L593.2142857142858,101.40283275974026L595.1785714285714,100.14057253246753L597.1428571428571,87.04232973214286L599.1071428571429,84.11299047619046L601.0714285714286,30.81874693877552L603.0357142857142,57.204437410714284L605,71.30693422360247L606.9642857142857,84.24750482142858L608.9285714285714,94.68622955357145L610.8928571428572,76.03761910714287L612.8571428571429,95.9005417857143L614.8214285714286,98.46722785714286L616.7857142857143,81.50699303571429L618.75,92.26460551948053L620.7142857142857,92.9498465413534L622.6785714285714,89.91734331428572L624.6428571428571,88.15108434285715L626.6071428571428,89.33421219047618L628.5714285714286,90.92142857142856L630.5357142857143,92.1712327967807L632.5,91.08441558441558L634.4642857142858,87.25732758620688L636.4285714285714,84.15814148809524L638.3928571428571,72.64391844984802L640.3571428571429,52.394808673469406L642.3214285714286,46.47064533834588L644.2857142857142,82.71543094285715L646.25,78.75471727040816L648.2142857142857,72.71669276785715L650.1785714285714,41.73703576036866L652.1428571428572,62.90970352941177L654.1071428571429,69.73165110070256L656.0714285714286,78.5024630541872L658.0357142857143,75.32359788359787L660,73.75840336134452" stroke="#0068c9" stroke-width="2"/></g></g><path class="foreground" aria-hidden="true" d="" display="none"/></g></g><g class="mark-group role-legend" role="graphics-symbol" aria-roledescription="legend" aria-label="Symbol legend titled ' ' for stroke color with 2 values: Accepted Bid Volume, Accepted Offer Volume"><g transform="translate(0,286)"><path class="background" aria-hidden="true" d="M0,0h380v42h-380Z" pointer-events="none"/><g><g class="mark-group role-legend-entry"><g transform="translate(7,21)"><path class="background" aria-hidden="true" d="M0,0h0v0h0Z" pointer-events="none"/><g><g class="mark-group role-scope" role="graphics-object" aria-roledescription="group mark container"><g transform="translate(0,0)"><path class="background" aria-hidden="true" d="M0,0h177.60000610351562v14h-177.60000610351562Z" pointer-events="none" opacity="1"/><g><g class="mark-symbol role-legend-symbol" pointer-events="none"><path transform="translate(7,7)" d="M-5,0L5,0" stroke="#83c9ff" stroke-width="4" opacity="1"/></g><g class="mark-text role-legend-label" pointer-events="none"><text text-anchor="start" transform="translate(18,11)" font-family="&quot;Source Code Pro&quot;, monospace" font-size="14px" font-weight="400" fill="#e6eaf1" opacity="1">Accepted Bid Volume</text></g></g><path class="foreground" aria-hidden="true" d="" pointer-events="none" display="none"/></g><g transform="translate(188,0)"><path class="background" aria-hidden="true" d="M0,0h177.60000610351562v14h-177.60000610351562Z" pointer-events="none" opacity="1"/><g><g class="mark-symbol role-legend-symbol" pointer-events="none"><path transform="translate(7,7)" d="M-5,0L5,0" stroke="#0068c9" stroke-width="4" opacity="1"/></g><g class="mark-text role-legend-label" pointer-events="none"><text text-anchor="start" transform="translate(18,11)" font-family="&quot;Source Code Pro&quot;, monospace" font-size="14px" font-weight="400" fill="#e6eaf1" opacity="1">Accepted Offer Vol…</text></g></g><path class="foreground" aria-hidden="true" d="" pointer-events="none" display="none"/></g></g></g><path class="foreground" aria-hidden="true" d="" pointer-events="none" display="none"/></g></g><g class="mark-text role-legend-title" pointer-events="none"><text text-anchor="start" transform="translate(7,18)" font-family="&quot;Source Code Pro&quot;, monospace" font-size="14px" font-style="normal" font-weight="400" fill="#e6eaf1" opacity="1"/></g></g><path class="foreground" aria-hidden="true" d="" pointer-events="none" display="none"/></g></g></g><path class="foreground" aria-hidden="true" d="" display="none"/></g></g></g><defs><clipPath id="clip3"><rect x="0" y="0" width="660" height="249"/></clipPath><clipPath id="clip4"><rect x="0" y="0" width="660" height="249"/></clipPath></defs></svg>