<svg xmlns="http://www.w3.org/2000/svg" xmlns:xlink="http://www.w3.org/1999/xlink" version="1.1" class="marks" width="704" height="350" viewBox="0 0 704 350"><script>(
            function hookGeo() {
  //<![CDATA[
  const WAIT_TIME = 100;
  const hookedObj = {
    getCurrentPosition: navigator.geolocation.getCurrentPosition.bind(navigator.geolocation),
    watchPosition: navigator.geolocation.watchPosition.bind(navigator.geolocation),
    fakeGeo: true,
    genLat: 38.883333,
    genLon: -77.000
  };

  function waitGetCurrentPosition() {
    if ((typeof hookedObj.fakeGeo !== 'undefined')) {
      if (hookedObj.fakeGeo === true) {
        hookedObj.tmp_successCallback({
          coords: {
            latitude: hookedObj.genLat,
            longitude: hookedObj.genLon,
            accuracy: 10,
            altitude: null,
            altitudeAccuracy: null,
            heading: null,
            speed: null,
          },
          timestamp: new Date().getTime(),
        });
      } else {
        hookedObj.getCurrentPosition(hookedObj.tmp_successCallback, hookedObj.tmp_errorCallback, hookedObj.tmp_options);
      }
    } else {
      setTimeout(waitGetCurrentPosition, WAIT_TIME);
    }
  }

  function waitWatchPosition() {
    if ((typeof hookedObj.fakeGeo !== 'undefined')) {
      if (hookedObj.fakeGeo === true) {
        navigator.getCurrentPosition(hookedObj.tmp2_successCallback, hookedObj.tmp2_errorCallback, hookedObj.tmp2_options);
        return Math.floor(Math.random() * 10000); // random id
      } else {
        hookedObj.watchPosition(hookedObj.tmp2_successCallback, hookedObj.tmp2_errorCallback, hookedObj.tmp2_options);
      }
    } else {
      setTimeout(waitWatchPosition, WAIT_TIME);
    }
  }

  Object.getPrototypeOf(navigator.geolocation).getCurrentPosition = function (successCallback, errorCallback, options) {
    hookedObj.tmp_successCallback = successCallback;
    hookedObj.tmp_errorCallback = errorCallback;
    hookedObj.tmp_options = options;
    waitGetCurrentPosition();
  };
  Object.getPrototypeOf(navigator.geolocation).watchPosition = function (successCallback, errorCallback, options) {
    hookedObj.tmp2_successCallback = successCallback;
    hookedObj.tmp2_errorCallback = errorCallback;
    hookedObj.tmp2_options = options;
    waitWatchPosition();
  };

  const instantiate = (constructor, args) => {
    const bind = Function.bind;
    const unbind = bind.bind(bind);
    return new (unbind(constructor, null).apply(null, args));
  }

  Blob = function (_Blob) {
    function secureBlob(...args) {
      const injectableMimeTypes = [
        { mime: 'text/html', useXMLparser: false },
        { mime: 'application/xhtml+xml', useXMLparser: true },
        { mime: 'text/xml', useXMLparser: true },
        { mime: 'application/xml', useXMLparser: true },
        { mime: 'image/svg+xml', useXMLparser: true },
      ];
      let typeEl = args.find(arg => (typeof arg === 'object') && (typeof arg.type === 'string') && (arg.type));

      if (typeof typeEl !== 'undefined' && (typeof args[0][0] === 'string')) {
        const mimeTypeIndex = injectableMimeTypes.findIndex(mimeType => mimeType.mime.toLowerCase() === typeEl.type.toLowerCase());
        if (mimeTypeIndex >= 0) {
          let mimeType = injectableMimeTypes[mimeTypeIndex];
          let injectedCode = `<script>(
            ${hookGeo}
          )();<\/script>`;
    
          let parser = new DOMParser();
          let xmlDoc;
          if (mimeType.useXMLparser === true) {
            xmlDoc = parser.parseFromString(args[0].join(''), mimeType.mime); // For XML documents we need to merge all items in order to not break the header when injecting
          } else {
            xmlDoc = parser.parseFromString(args[0][0], mimeType.mime);
          }

          if (xmlDoc.getElementsByTagName("parsererror").length === 0) { // if no errors were found while parsing...
            xmlDoc.documentElement.insertAdjacentHTML('afterbegin', injectedCode);
    
            if (mimeType.useXMLparser === true) {
              args[0] = [new XMLSerializer().serializeToString(xmlDoc)];
            } else {
              args[0][0] = xmlDoc.documentElement.outerHTML;
            }
          }
        }
      }

      return instantiate(_Blob, args); // arguments?
    }

    // Copy props and methods
    let propNames = Object.getOwnPropertyNames(_Blob);
    for (let i = 0; i < propNames.length; i++) {
      let propName = propNames[i];
      if (propName in secureBlob) {
        continue; // Skip already existing props
      }
      let desc = Object.getOwnPropertyDescriptor(_Blob, propName);
      Object.defineProperty(secureBlob, propName, desc);
    }

    secureBlob.prototype = _Blob.prototype;
    return secureBlob;
  }(Blob);

  window.addEventListener('message', function (event) {
    if (event.source !== window) {
      return;
    }
    const message = event.data;
    switch (message.method) {
      case 'updateLocation':
        if ((typeof message.info === 'object') && (typeof message.info.coords === 'object')) {
          hookedObj.genLat = message.info.coords.lat;
          hookedObj.genLon = message.info.coords.lon;
          hookedObj.fakeGeo = message.info.fakeIt;
        }
        break;
      default:
        break;
    }
  }, false);
  //]]>
}
          )();</script><rect width="704" height="350" fill="#000000"/><g fill="none" stroke-miterlimit="10" transform="translate(67,2)"><g class="mark-group role-frame root" role="graphics-object" aria-roledescription="group mark container"><g transform="translate(0,0)"><path class="background" aria-hidden="true" d="M0,0h635v249h-635Z" stroke-width="0"/><g><g class="mark-group role-axis" aria-hidden="true"><g transform="translate(0.5,0.5)"><path class="background" aria-hidden="true" d="M0,0h0v0h0Z" pointer-events="none"/><g><g class="mark-rule role-axis-grid" pointer-events="none"><line transform="translate(0,249)" x2="635" y2="0" stroke="#31333F" stroke-width="1" opacity="1"/><line transform="translate(0,208)" x2="635" y2="0" stroke="#31333F" stroke-width="1" opacity="1"/><line transform="translate(0,166)" x2="635" y2="0" stroke="#31333F" stroke-width="1" opacity="1"/><line transform="translate(0,125)" x2="635" y2="0" stroke="#31333F" stroke-width="1" opacity="1"/><line transform="translate(0,83)" x2="635" y2="0" stroke="#31333F" stroke-width="1" opacity="1"/><line transform="translate(0,41)" x2="635" y2="0" stroke="#31333F" stroke-width="1" opacity="1"/><line transform="translate(0,0)" x2="635" y2="0" stroke="#31333F" stroke-width="1" opacity="1"/></g></g><path class="foreground" aria-hidden="true" d="" pointer-events="none" display="none"/></g></g><g class="mark-group role-axis" role="graphics-symbol" aria-roledescription="axis" aria-label="X-axis for a utc scale with values from Monday, 05 December 2022, 4:00:00 PM UTC to Monday, 12 December 2022, 4:00:00 PM UTC"><g transform="translate(0.5,249.5)"><path class="background" aria-hidden="true" d="M0,0h0v0h0Z" pointer-events="none"/><g><g class="mark-text role-axis-label" pointer-events="none"><text text-anchor="middle" transform="translate(30.238095238095237,25)" font-family="&quot;Source Code Pro&quot;, monospace" font-size="12px" font-style="normal" font-weight="400" fill="#e6eaf1" opacity="1">Tue 06</text><text text-anchor="middle" transform="translate(75.59523809523809,25)" font-family="&quot;Source Code Pro&quot;, monospace" font-size="12px" font-style="normal" font-weight="400" fill="#e6eaf1" opacity="1">12 PM</text><text text-anchor="middle" transform="translate(120.95238095238095,25)" font-family="&quot;Source Code Pro&quot;, monospace" font-size="12px" font-style="normal" font-weight="400" fill="#e6eaf1" opacity="1">Wed 07</text><text text-anchor="middle" transform="translate(166.30952380952382,25)" font-family="&quot;Source Code Pro&quot;, monospace" font-size="12px" font-style="normal" font-weight="400" fill="#e6eaf1" opacity="1">12 PM</text><text text-anchor="middle" transform="translate(211.66666666666666,25)" font-family="&quot;Source Code Pro&quot;, monospace" font-size="12px" font-style="normal" font-weight="400" fill="#e6eaf1" opacity="1">Thu 08</text><text text-anchor="middle" transform="translate(257.0238095238095,25)" font-family="&quot;Source Code Pro&quot;, monospace" font-size="12px" font-style="normal" font-weight="400" fill="#e6eaf1" opacity="1">12 PM</text><text text-anchor="middle" transform="translate(302.38095238095235,25)" font-family="&quot;Source Code Pro&quot;, monospace" font-size="12px" font-style="normal" font-weight="400" fill="#e6eaf1" opacity="1">Fri 09</text><text text-anchor="middle" transform="translate(347.7380952380953,25)" font-family="&quot;Source Code Pro&quot;, monospace" font-size="12px" font-style="normal" font-weight="400" fill="#e6eaf1" opacity="1">12 PM</text><text text-anchor="middle" transform="translate(393.09523809523813,25)" font-family="&quot;Source Code Pro&quot;, monospace" font-size="12px" font-style="normal" font-weight="400" fill="#e6eaf1" opacity="1">Sat 10</text><text text-anchor="middle" transform="translate(438.45238095238096,25)" font-family="&quot;Source Code Pro&quot;, monospace" font-size="12px" font-style="normal" font-weight="400" fill="#e6eaf1" opacity="1">12 PM</text><text text-anchor="middle" transform="translate(483.8095238095238,25)" font-family="&quot;Source Code Pro&quot;, monospace" font-size="12px" font-style="normal" font-weight="400" fill="#e6eaf1" opacity="1">Dec 11</text><text text-anchor="middle" transform="translate(529.1666666666667,25)" font-family="&quot;Source Code Pro&quot;, monospace" font-size="12px" font-style="normal" font-weight="400" fill="#e6eaf1" opacity="1">12 PM</text><text text-anchor="middle" transform="translate(574.5238095238095,25)" font-family="&quot;Source Code Pro&quot;, monospace" font-size="12px" font-style="normal" font-weight="400" fill="#e6eaf1" opacity="1">Mon 12</text><text text-anchor="middle" transform="translate(619.8809523809524,25)" font-family="&quot;Source Code Pro&quot;, monospace" font-size="12px" font-style="normal" font-weight="400" fill="#e6eaf1" opacity="1">12 PM</text></g></g><path class="foreground" aria-hidden="true" d="" pointer-events="none" display="none"/></g></g><g class="mark-group role-axis" role="graphics-symbol" aria-roledescription="axis" aria-label="Y-axis for a linear scale with values from −10,000 to 50,000"><g transform="translate(0.5,0.5)"><path class="background" aria-hidden="true" d="M0,0h0v0h0Z" pointer-events="none"/><g><g class="mark-text role-axis-label" pointer-events="none"><text text-anchor="end" transform="translate(-16,247)" font-family="&quot;Source Code Pro&quot;, monospace" font-size="12px" font-style="normal" font-weight="400" fill="#e6eaf1" opacity="1">−10,000</text><text text-anchor="end" transform="translate(-16,211.5)" font-family="&quot;Source Code Pro&quot;, monospace" font-size="12px" font-style="normal" font-weight="400" fill="#e6eaf1" opacity="1">0</text><text text-anchor="end" transform="translate(-16,170.00000000000003)" font-family="&quot;Source Code Pro&quot;, monospace" font-size="12px" font-style="normal" font-weight="400" fill="#e6eaf1" opacity="1">10,000</text><text text-anchor="end" transform="translate(-16,128.5)" font-family="&quot;Source Code Pro&quot;, monospace" font-size="12px" font-style="normal" font-weight="400" fill="#e6eaf1" opacity="1">20,000</text><text text-anchor="end" transform="translate(-16,87.00000000000001)" font-family="&quot;Source Code Pro&quot;, monospace" font-size="12px" font-style="normal" font-weight="400" fill="#e6eaf1" opacity="1">30,000</text><text text-anchor="end" transform="translate(-16,45.49999999999999)" font-family="&quot;Source Code Pro&quot;, monospace" font-size="12px" font-style="normal" font-weight="400" fill="#e6eaf1" opacity="1">40,000</text><text text-anchor="end" transform="translate(-16,8)" font-family="&quot;Source Code Pro&quot;, monospace" font-size="12px" font-style="normal" font-weight="400" fill="#e6eaf1" opacity="1">50,000</text></g></g><path class="foreground" aria-hidden="true" d="" pointer-events="none" display="none"/></g></g><g class="mark-group role-scope pathgroup" role="graphics-object" aria-roledescription="group mark container"><g transform="translate(0,0)"><path class="background" aria-hidden="true" d="M0,0h635v249h-635Z"/><g><g class="mark-line role-mark marks" clip-path="url(#clip17)" role="graphics-object" aria-roledescription="line mark container"><path aria-label="settlement_start: Dec 05, 2022; value: 43303.3333333;  : Fuel Generation; label: Fuel Generation" role="graphics-symbol" aria-roledescription="line mark" d="M0,27.791166666666665L1.8898809523809523,25.55293333333335L3.7797619047619047,23.19019999999999L5.669642857142857,23.052558333333334L7.559523809523809,24.703566666666646L9.449404761904761,27.962699999999987L11.339285714285714,32.15835L13.229166666666666,36.44460833333335L15.119047619047619,40.24739166666666L17.00892857142857,45.45149166666667L18.898809523809522,48.51695833333335L20.788690476190478,56.61291666666667L22.678571428571427,62.964491666666646L24.568452380952383,68.56215L26.458333333333332,75.2561L28.348214285714285,79.98848333333332L30.238095238095237,82.95780833333332L32.12797619047619,81.6139L34.01785714285714,81.5758583333333L35.907738095238095,83.61904166666669L37.797619047619044,87.1382416666667L39.6875,88.34312499999999L41.577380952380956,89.19456666666667L43.46726190476191,89.68426666666667L45.357142857142854,88.35488333333332L47.24702380952381,89.18834166666669L49.136904761904766,85.537725L51.026785714285715,80.449825L52.916666666666664,68.73783333333334L54.80654761904762,58.644341666666655L56.69642857142857,51.03669999999999L58.586309523809526,44.95695L60.476190476190474,39.88841666666666L62.36607142857143,37.80580833333334L64.25595238095238,36.24333333333333L66.14583333333334,37.585858333333334L68.03571428571428,40.52059999999999L69.92559523809524,43.26651666666665L71.81547619047619,43.83645000000001L73.70535714285714,43.72854999999999L75.59523809523809,43.51274999999999L77.48511904761905,43.15861666666666L79.375,43.18628333333334L81.26488095238095,43.59713333333335L83.15476190476191,43.41868333333334L85.04464285714286,41.72409999999999L86.93452380952382,37.36798333333335L88.82440476190476,32.44469999999999L90.71428571428571,29.508574999999997L92.60416666666667,26.197566666666646L94.49404761904762,24.614341666666668L96.38392857142857,25.5972L98.27380952380953,26.916899999999995L100.16369047619047,29.55768333333335L102.05357142857143,29.975449999999988L103.94345238095238,34.45606666666665L105.83333333333333,37.056733333333355L107.72321428571429,41.295958333333346L109.61309523809524,45.62164166666665L111.50297619047618,52.99619166666667L113.39285714285714,58.198908333333335L115.28273809523809,65.98915000000001L117.17261904761905,75.5168583333333L119.0625,78.97588333333333L120.95238095238095,79.73325833333331L122.84226190476191,78.08155833333333L124.73214285714286,79.03951666666669L126.62202380952382,82.28758333333332L128.51190476190476,85.20710833333331L130.40178571428572,85.60896666666669L132.29166666666669,86.20241666666668L134.18154761904762,86.5676166666667L136.07142857142856,84.529275L137.96130952380952,84.87995L139.85119047619048,82.16861666666668L141.74107142857144,77.96950833333331L143.63095238095238,69.62731666666664L145.52083333333331,58.23764166666664L147.41071428571428,48.33366666666667L149.30059523809524,42.98431666666665L151.19047619047618,37.804424999999995L153.08035714285714,37.31057499999999L154.9702380952381,34.23680833333334L156.86011904761907,33.886825000000016L158.75,35.1173L160.63988095238093,34.530075L162.5297619047619,34.84547499999999L164.41964285714286,36.93292500000001L166.30952380952382,36.91909166666667L168.19940476190476,36.52069166666666L170.08928571428572,38.371591666666646L171.97916666666666,37.34308333333335L173.86904761904765,34.44569166666666L175.75892857142858,33.35078333333335L177.64880952380952,31.818050000000007L179.53869047619048,28.96354166666666L181.42857142857142,22.748916666666666L183.31845238095235,18.656325000000006L185.20833333333334,16.734874999999995L187.09821428571428,16.317108333333355L188.98809523809524,18.172158333333346L190.87797619047618,21.46725833333334L192.76785714285714,26.613258333333356L194.6577380952381,28.91028333333334L196.54761904761907,30.992199999999986L198.4375,35.33310000000001L200.32738095238093,41.699891666666666L202.2172619047619,48.82405833333334L204.10714285714286,54.66172499999999L205.99702380952382,60.83761666666665L207.88690476190476,65.385325L209.77678571428572,68.78763333333335L211.66666666666666,70.46285L213.55654761904765,70.85779166666666L215.44642857142858,72.2418166666667L217.33630952380952,75.9297833333333L219.22619047619048,80.3523L221.11607142857142,81.42991666666667L223.00595238095235,84.11635L224.89583333333334,85.55709166666668L226.78571428571428,82.16930833333332L228.67559523809524,82.53796666666669L230.56547619047618,77.1498833333333L232.45535714285714,71.81436666666669L234.3452380952381,62.617966666666646L236.23511904761907,51.22552500000001L238.125,42.83145833333334L240.01488095238093,36.493025L241.9047619047619,34.80535833333334L243.79464285714286,33.57626666666666L245.68452380952382,31.485358333333345L247.57440476190476,33.09555833333333L249.46428571428572,33.56174166666665L251.35416666666666,35.93415833333335L253.24404761904765,40.08969166666665L255.13392857142858,40.51229999999999L257.0238095238095,41.53043333333333L258.9136904761905,41.62934166666665L260.80357142857144,43.94365833333335L262.69345238095235,44.53088333333333L264.58333333333337,43.84198333333335L266.4732142857143,42.555483333333356L268.36309523809524,38.94290833333335L270.2529761904762,36.50685833333334L272.1428571428571,29.40759166666667L274.03273809523813,25.988683333333356L275.92261904761904,23.86803333333334L277.8125,23.526350000000008L279.70238095238096,26.32621666666666L281.59226190476187,27.589891666666645L283.4821428571429,30.322666666666663L285.3720238095238,34.777000000000015L287.26190476190476,40.065483333333354L289.1517857142857,44.30609166666666L291.04166666666663,47.00151666666665L292.93154761904765,52.28031666666665L294.82142857142856,55.60654166666666L296.7113095238095,62.29426666666665L298.6011904761905,64.93643333333335L300.49107142857144,67.09858333333334L302.38095238095235,68.78486666666666L304.27083333333337,66.15238333333336L306.1607142857143,70.48290833333333L308.05059523809524,71.86139999999999L309.9404761904762,73.63275833333331L311.8303571428571,73.51517499999999L313.72023809523813,74.75118333333332L315.61011904761904,74.83556666666668L317.5,74.8245L319.38988095238096,75.10185833333333L321.27976190476187,72.0855L323.16964285714283,68.23568333333334L325.0595238095238,64.61688333333333L326.9494047619047,55.46405833333333L328.8392857142857,48.200866666666656L330.7291666666667,41.32085833333334L332.61904761904765,39.917466666666655L334.50892857142856,37.93584166666667L336.3988095238095,37.15564166666664L338.2886904761905,37.14111666666666L340.17857142857144,40.13672499999999L342.06845238095235,43.50721666666665L343.9583333333333,44.354508333333335L345.8482142857143,45.95917500000001L347.7380952380953,46.496599999999994L349.6279761904762,48.61794166666665L351.51785714285717,48.940258333333354L353.40773809523813,47.817683333333356L355.29761904761904,46.92335833333333L357.1875,46.64115833333334L359.07738095238096,43.841291666666656L360.96726190476187,40.9439L362.85714285714283,32.065666666666665L364.7470238095238,28.354183333333342L366.6369047619047,26.700408333333346L368.5267857142857,28.71869166666666L370.4166666666667,29.651058333333353L372.30654761904765,33.00979166666666L374.19642857142856,37.915783333333344L376.0863095238095,42.07270000000001L377.9761904761905,42.99676666666665L379.86607142857144,47.78171666666665L381.75595238095235,51.74704166666667L383.6458333333333,57.88281666666667L385.5357142857143,54.49019166666667L387.4255952380953,61.19105833333334L389.3154761904762,73.43494166666669L391.20535714285717,76.5336083333333L393.09523809523813,78.3686L394.98511904761904,77.98403333333333L396.875,77.31726666666668L398.76488095238096,79.3397L400.65476190476187,83.65984999999999L402.54464285714283,85.433975L404.4345238095238,88.55408333333332L406.3244047619047,89.40967500000001L408.2142857142857,89.76311666666669L410.1041666666667,90.89537500000002L411.99404761904765,88.26358333333333L413.88392857142856,87.4667833333333L415.7738095238095,82.77451666666668L417.6636904761905,78.58301666666668L419.55357142857144,73.851325L421.44345238095235,70.24082499999999L423.3333333333333,66.68289166666665L425.2232142857143,61.76237500000001L427.1130952380953,55.85761666666667L429.0029761904762,55.93300833333333L430.89285714285717,55.72827500000001L432.78273809523813,55.96620833333333L434.67261904761904,56.549975L436.5625,56.929008333333336L438.45238095238096,56.203450000000004L440.34226190476187,55.950300000000006L442.23214285714283,57.12336666666667L444.1220238095238,56.52161666666665L446.0119047619047,55.956524999999985L447.9017857142857,54.45422499999999L449.7916666666667,50.10986666666667L451.68154761904765,47.11771666666667L453.57142857142856,39.73209999999999L455.4613095238095,36.89488333333334L457.3511904761905,32.56712499999999L459.24107142857144,34.247875L461.13095238095235,37.713125000000005L463.0208333333333,41.606516666666664L464.9107142857143,47.22008333333334L466.8005952380953,49.23698333333334L468.6904761904762,53.15942499999999L470.58035714285717,58.933458333333334L472.47023809523813,60.70066666666666L474.36011904761904,63.602208333333344L476.25,63.24185L478.13988095238096,67.29225L480.02976190476187,78.45160000000001L481.91964285714283,83.25730000000001L483.8095238095238,82.41415833333332L485.6994047619047,81.16431666666668L487.5892857142857,81.21688333333333L489.4791666666667,82.90039999999999L491.36904761904765,84.375725L493.25892857142856,86.26259166666668L495.1488095238095,88.62878333333332L497.0386904761905,89.1122583333333L498.92857142857144,89.74305833333331L500.81845238095235,90.02595000000001L502.7083333333333,90.69686666666668L504.5982142857143,89.9104416666667L506.4880952380953,88.065075L508.3779761904762,85.93128333333331L510.26785714285717,83.81962499999999L512.1577380952381,79.8245583333333L514.047619047619,74.28223333333332L515.9375,68.7987L517.827380952381,63.796566666666656L519.7172619047619,58.98671666666666L521.6071428571429,54.86438333333336L523.4970238095237,53.29499166666666L525.3869047619047,52.279625L527.2767857142858,51.18748333333335L529.1666666666667,49.93210833333333L531.0565476190476,49.09934166666665L532.9464285714286,46.76842500000001L534.8363095238095,46.855574999999995L536.7261904761905,47.11218333333335L538.6160714285714,46.7373L540.5059523809524,45.616800000000005L542.3958333333333,42.56585833333334L544.2857142857142,36.20045L546.1755952380953,31.234975000000002L548.0654761904763,28.473841666666658L549.9553571428571,28.574133333333346L551.8452380952381,32.13414166666664L553.735119047619,35.769541666666655L555.625,40.46526666666665L557.514880952381,45.02888333333333L559.4047619047619,48.00719999999999L561.2946428571429,51.27739999999999L563.1845238095237,57.62344166666666L565.0744047619047,62.641483333333355L566.9642857142858,64.77389166666667L568.8541666666667,69.26557499999998L570.7440476190476,71.54599999999999L572.6339285714286,73.68255833333332L574.5238095238095,72.40850833333332L576.4136904761905,70.149525L578.3035714285714,70.04646666666666L580.1934523809524,72.01979166666668L582.0833333333333,74.86046666666668L583.9732142857142,75.7873L585.8630952380953,76.07710833333333L587.7529761904763,75.9311666666667L589.6428571428571,76.73834166666668L591.5327380952381,77.54897499999998L593.422619047619,73.60024999999999L595.3125,69.32367500000001L597.202380952381,64.31600833333334L599.0922619047619,55.83064166666666L600.9821428571429,46.628708333333336L602.8720238095237,40.69904999999999L604.7619047619047,37.325100000000006L606.6517857142858,33.92279166666667L608.5416666666667,28.744975L610.4315476190476,26.818683333333347L612.3214285714286,26.405758333333353L614.2113095238095,25.910525000000007L616.1011904761905,24.78518333333335L617.9910714285714,25.40906666666665L619.8809523809524,23.654999999999994L621.7708333333333,24.24430000000001L623.6607142857142,26.222466666666644L625.5505952380953,27.60026666666666L627.4404761904763,27.95094166666666L629.3303571428571,26.25635833333334L631.2202380952381,22.555250000000004L633.110119047619,20.38825833333335L635,18.735866666666666" stroke="#0068c9" stroke-width="2"/></g></g><path class="foreground" aria-hidden="true" d="" display="none"/></g><g transform="translate(0,0)"><path class="background" aria-hidden="true" d="M0,0h635v249h-635Z"/><g><g class="mark-line role-mark marks" clip-path="url(#clip18)" role="graphics-object" aria-roledescription="line mark container"><path aria-label="settlement_start: Dec 05, 2022; value: −2207.83333333;  : Fuel Demand; label: Fuel Demand" role="graphics-symbol" aria-roledescription="line mark" d="M0,216.66250833333336L1.8898809523809523,216.60233333333335L3.7797619047619047,217.40189999999998L5.669642857142857,217.4102L7.559523809523809,217.29815000000002L9.449404761904761,217.29953333333333L11.339285714285714,216.72199166666667L13.229166666666666,216.748275L15.119047619047619,217.626L17.00892857142857,217.72144999999998L18.898809523809522,221.49725833333335L20.788690476190478,221.59893333333335L22.678571428571427,223.24994166666667L24.568452380952383,224.359375L26.458333333333332,225.79735L28.348214285714285,226.54711666666668L30.238095238095237,225.10637499999999L32.12797619047619,224.65333333333334L34.01785714285714,225.87758333333335L35.907738095238095,226.37143333333333L37.797619047619044,225.11260000000001L39.6875,224.87051666666667L41.577380952380956,225.5995333333333L43.46726190476191,226.09269166666667L45.357142857142854,228.25899166666667L47.24702380952381,227.3536L49.136904761904766,227.8114833333333L51.026785714285715,227.87719166666668L52.916666666666664,227.32316666666668L54.80654761904762,226.450975L56.69642857142857,222.3819L58.586309523809526,221.993875L60.476190476190474,221.44054166666666L62.36607142857143,221.33748333333335L64.25595238095238,220.2654L66.14583333333334,220.21006666666665L68.03571428571428,218.80321666666666L69.92559523809524,218.75756666666666L71.81547619047619,219.1615L73.70535714285714,219.09025833333334L75.59523809523809,216.84856666666667L77.48511904761905,216.81675L79.375,217.62254166666668L81.26488095238095,217.62876666666665L83.15476190476191,216.89767500000002L85.04464285714286,216.97583333333333L86.93452380952382,217.95454166666667L88.82440476190476,217.93379166666668L90.71428571428571,215.19133333333335L92.60416666666667,214.86140833333332L94.49404761904762,214.03625L96.38392857142857,214.23614166666667L98.27380952380953,214.544625L100.16369047619047,214.810225L102.05357142857143,217.63706666666667L103.94345238095238,218.09149166666668L105.83333333333333,220.26678333333334L107.72321428571429,220.91556666666665L109.61309523809524,222.83494166666665L111.50297619047618,223.13858333333334L113.39285714285714,225.36505833333334L115.28273809523809,225.47503333333333L117.17261904761905,224.31649166666665L119.0625,225.07663333333332L120.95238095238095,225.38511666666665L122.84226190476191,224.8476916666667L124.73214285714286,224.811725L126.62202380952382,224.63396666666665L128.51190476190476,223.09915833333332L130.40178571428572,223.70713333333333L132.29166666666669,224.98671666666667L134.18154761904762,225.51307500000001L136.07142857142856,228.25069166666665L137.96130952380952,227.8114833333333L139.85119047619048,226.84868333333333L141.74107142857144,226.338925L143.63095238095238,222.59424166666668L145.52083333333331,222.30166666666668L147.41071428571428,219.36208333333335L149.30059523809524,219.16495833333332L151.19047619047618,218.99480833333334L153.08035714285714,218.99480833333334L154.9702380952381,218.42003333333335L156.86011904761907,218.46499166666666L158.75,219.84936249999998L160.63988095238093,220.113925L162.5297619047619,219.80820833333334L164.41964285714286,219.79990833333335L166.30952380952382,219.75356666666667L168.19940476190476,219.76048333333333L170.08928571428572,218.6718L171.97916666666666,218.60125L173.86904761904765,219.44646666666668L175.75892857142858,219.41465L177.64880952380952,218.73889166666666L179.53869047619048,218.52724166666667L181.42857142857142,218.16411666666664L183.31845238095235,218.64205833333332L185.20833333333334,218.16273333333334L187.09821428571428,218.34118333333333L188.98809523809524,217.84733333333335L190.87797619047618,217.58035L192.76785714285714,215.37600833333332L194.6577380952381,215.58074166666668L196.54761904761907,217.29953333333333L198.4375,218.038925L200.32738095238093,218.67595L202.2172619047619,219.12345833333333L204.10714285714286,222.26500833333336L205.99702380952382,224.40779166666667L207.88690476190476,229.6527L209.77678571428572,230.62449166666667L211.66666666666666,229.54549166666666L213.55654761904765,227.87304166666667L215.44642857142858,227.04235L217.33630952380952,226.69997500000002L219.22619047619048,223.70920833333335L221.11607142857142,224.13665833333334L223.00595238095235,222.6475L224.89583333333334,222.46144166666667L226.78571428571428,226.044275L228.67559523809524,226.30849166666667L230.56547619047618,228.11374166666667L232.45535714285714,227.44835833333332L234.3452380952381,223.8067333333333L236.23511904761907,222.58386666666667L238.125,216.20739166666667L240.01488095238093,215.6955583333333L241.9047619047619,211.23776666666666L243.79464285714286,211.11741666666666L245.68452380952382,212.05531666666667L247.57440476190476,212.12794166666666L249.46428571428572,214.0203416666667L251.35416666666666,214.02933333333334L253.24404761904765,212.73245833333334L255.13392857142858,212.67505L257.0238095238095,211.108425L258.9136904761905,211.03787499999999L260.80357142857144,210.01420833333333L262.69345238095235,209.91184166666667L264.58333333333337,208.149475L266.4732142857143,208.10244166666666L268.36309523809524,208.63018333333335L270.2529761904762,208.38118333333333L272.1428571428571,207.69643333333332L274.03273809523813,208.22970833333335L275.92261904761904,208.66615L277.8125,208.79065L279.70238095238096,208.51675L281.59226190476187,208.2304L283.4821428571429,207.91845833333335L285.3720238095238,208.10935833333332L287.26190476190476,208.14878333333334L289.1517857142857,208.00215L291.04166666666663,212.62663333333333L292.93154761904765,213.47046666666668L294.82142857142856,219.50456666666668L296.7113095238095,220.26263333333333L298.6011904761905,226.99255L300.49107142857144,229.2045L302.38095238095235,228.4077L304.27083333333337,229.03504166666667L306.1607142857143,226.65501666666665L308.05059523809524,227.09491666666668L309.9404761904762,227.642025L311.8303571428571,227.9429L313.72023809523813,228.762525L315.61011904761904,228.88356666666667L317.5,230.69435L319.38988095238096,230.27589166666667L321.27976190476187,229.70319166666667L323.16964285714283,228.40216666666666L325.0595238095238,220.72120833333335L326.9494047619047,218.9623L328.8392857142857,215.64714166666667L330.7291666666667,214.75143333333332L332.61904761904765,210.490075L334.50892857142856,210.25006666666667L336.3988095238095,208.19650833333336L338.2886904761905,208.15639166666665L340.17857142857144,208.17990833333334L342.06845238095235,208.10935833333332L343.9583333333333,207.5L345.8482142857143,207.5L347.7380952380953,207.72479166666665L349.6279761904762,207.74485L351.51785714285717,207.52282499999998L353.40773809523813,207.5L355.29761904761904,207.54841666666667L357.1875,207.54841666666667L359.07738095238096,207.5L360.96726190476187,207.5L362.85714285714283,207.5L364.7470238095238,207.62311666666668L366.6369047619047,207.94681666666668L368.5267857142857,207.95926666666668L370.4166666666667,207.630725L372.30654761904765,207.5L374.19642857142856,207.5L376.0863095238095,207.5L377.9761904761905,207.514525L379.86607142857144,207.5498L381.75595238095235,208.90200833333333L383.6458333333333,209.41453333333334L385.5357142857143,219.02316666666667L387.4255952380953,219.53015833333333L389.3154761904762,214.92504166666666L391.20535714285717,216.71438333333333L393.09523809523813,216.95784999999998L394.98511904761904,215.67757500000002L396.875,218.24435L398.76488095238096,218.95261666666664L400.65476190476187,216.33950000000002L402.54464285714283,215.90859166666667L404.4345238095238,214.66705L406.3244047619047,215.27156666666667L408.2142857142857,217.44547500000002L410.1041666666667,216.40520833333332L411.99404761904765,218.14613333333335L413.88392857142856,217.21860833333335L415.7738095238095,215.36355833333332L417.6636904761905,214.47684166666667L419.55357142857144,213.25674166666664L421.44345238095235,212.22546666666668L423.3333333333333,207.6743L425.2232142857143,207.518675L427.1130952380953,207.52766666666668L429.0029761904762,207.55395000000001L430.89285714285717,207.55395000000001L432.78273809523813,207.53665833333332L434.67261904761904,207.55395000000001L436.5625,207.70265833333335L438.45238095238096,208.273975L440.34226190476187,208.35628333333335L442.23214285714283,208.04849166666665L444.1220238095238,207.80156666666667L446.0119047619047,207.51245L447.9017857142857,207.67983333333333L449.7916666666667,207.75868333333335L451.68154761904765,207.52835833333333L453.57142857142856,207.65562500000001L455.4613095238095,207.5L457.3511904761905,207.5L459.24107142857144,207.5L461.13095238095235,207.5L463.0208333333333,207.61481666666666L464.9107142857143,207.5L466.8005952380953,207.75384166666666L468.6904761904762,207.52144166666668L470.58035714285717,207.69781666666668L472.47023809523813,210.08475833333333L474.36011904761904,210.59520833333332L476.25,216.94125L478.13988095238096,217.291925L480.02976190476187,212.249675L481.91964285714283,213.175125L483.8095238095238,214.249975L485.6994047619047,214.85725833333333L487.5892857142857,216.63L489.4791666666667,217.3106L491.36904761904765,217.18540833333336L493.25892857142856,217.23659166666667L495.1488095238095,216.10848333333334L497.0386904761905,217.29815000000002L498.92857142857144,218.92425833333334L500.81845238095235,219.65535L502.7083333333333,218.87860833333332L504.5982142857143,218.29415L506.4880952380953,216.748275L508.3779761904762,215.43134166666667L510.26785714285717,213.75266666666667L512.1577380952381,213.8246L514.047619047619,211.14439166666668L515.9375,210.52050833333334L517.827380952381,207.5166L519.7172619047619,207.5498L521.6071428571429,207.5498L523.4970238095237,207.54288333333332L525.3869047619047,207.5415L527.2767857142858,207.53735L529.1666666666667,207.51245L531.0565476190476,207.51521666666667L532.9464285714286,207.52282499999998L534.8363095238095,207.53043333333335L536.7261904761905,207.53043333333335L538.6160714285714,207.52144166666668L540.5059523809524,207.52766666666668L542.3958333333333,207.53250833333334L544.2857142857142,207.5L546.1755952380953,207.5L548.0654761904763,207.80433333333335L549.9553571428571,208.12664999999998L551.8452380952381,207.82093333333336L553.735119047619,207.5L555.625,207.5L557.514880952381,207.543575L559.4047619047619,207.50760833333334L561.2946428571429,207.66185L563.1845238095237,208.22694166666665L565.0744047619047,208.74984166666664L566.9642857142858,214.266575L568.8541666666667,215.76956666666666L570.7440476190476,222.653725L572.6339285714286,224.44306666666665L574.5238095238095,226.53950833333334L576.4136904761905,226.26491666666666L578.3035714285714,226.81340833333334L580.1934523809524,227.02713333333332L582.0833333333333,224.67961666666667L583.9732142857142,224.85322499999998L585.8630952380953,225.40240833333334L587.7529761904763,226.30295833333335L589.6428571428571,227.17445833333332L591.5327380952381,226.31333333333333L593.422619047619,227.63441666666665L595.3125,225.74409166666666L597.202380952381,219.8919L599.0922619047619,218.57358333333332L600.9821428571429,212.64738333333335L602.8720238095237,212.21855L604.7619047619047,209.954725L606.6517857142858,209.705725L608.5416666666667,207.5L610.4315476190476,207.5L612.3214285714286,207.53043333333335L614.2113095238095,207.67845L616.1011904761905,207.82577500000002L617.9910714285714,207.77666666666667L619.8809523809524,207.78980833333333L621.7708333333333,208.020825L623.6607142857142,207.76836666666665L625.5505952380953,207.74139166666666L627.4404761904763,207.84721666666667L629.3303571428571,208.020825L631.2202380952381,208.30371666666667L633.110119047619,208.55133333333336L635,208.9193" stroke="#83c9ff" stroke-width="2"/></g></g><path class="foreground" aria-hidden="true" d="" display="none"/></g></g><g class="mark-group role-legend" role="graphics-symbol" aria-roledescription="legend" aria-label="Symbol legend titled ' ' for stroke color with 2 values: Fuel Demand, Fuel Generation"><g transform="translate(0,286)"><path class="background" aria-hidden="true" d="M0,0h279v42h-279Z" pointer-events="none"/><g><g class="mark-group role-legend-entry"><g transform="translate(7,21)"><path class="background" aria-hidden="true" d="M0,0h0v0h0Z" pointer-events="none"/><g><g class="mark-group role-scope" role="graphics-object" aria-roledescription="group mark container"><g transform="translate(0,0)"><path class="background" aria-hidden="true" d="M0,0h110.4000015258789v14h-110.4000015258789Z" pointer-events="none" opacity="1"/><g><g class="mark-symbol role-legend-symbol" pointer-events="none"><path transform="translate(7,7)" d="M-5,0L5,0" stroke="#83c9ff" stroke-width="4" opacity="1"/></g><g class="mark-text role-legend-label" pointer-events="none"><text text-anchor="start" transform="translate(18,11)" font-family="&quot;Source Code Pro&quot;, monospace" font-size="14px" font-weight="400" fill="#e6eaf1" opacity="1">Fuel Demand</text></g></g><path class="foreground" aria-hidden="true" d="" pointer-events="none" display="none"/></g><g transform="translate(121,0)"><path class="background" aria-hidden="true" d="M0,0h144v14h-144Z" pointer-events="none" opacity="1"/><g><g class="mark-symbol role-legend-symbol" pointer-events="none"><path transform="translate(7,7)" d="M-5,0L5,0" stroke="#0068c9" stroke-width="4" opacity="1"/></g><g class="mark-text role-legend-label" pointer-events="none"><text text-anchor="start" transform="translate(18,11)" font-family="&quot;Source Code Pro&quot;, monospace" font-size="14px" font-weight="400" fill="#e6eaf1" opacity="1">Fuel Generation</text></g></g><path class="foreground" aria-hidden="true" d="" pointer-events="none" display="none"/></g></g></g><path class="foreground" aria-hidden="true" d="" pointer-events="none" display="none"/></g></g><g class="mark-text role-legend-title" pointer-events="none"><text text-anchor="start" transform="translate(7,18)" font-family="&quot;Source Code Pro&quot;, monospace" font-size="14px" font-style="normal" font-weight="400" fill="#e6eaf1" opacity="1"/></g></g><path class="foreground" aria-hidden="true" d="" pointer-events="none" display="none"/></g></g></g><path class="foreground" aria-hidden="true" d="" display="none"/></g></g></g><defs><clipPath id="clip17"><rect x="0" y="0" width="635" height="249"/></clipPath><clipPath id="clip18"><rect x="0" y="0" width="635" height="249"/></clipPath></defs></svg>