<svg xmlns="http://www.w3.org/2000/svg" xmlns:xlink="http://www.w3.org/1999/xlink" version="1.1" class="marks" width="704" height="350" viewBox="0 0 704 350"><script>(
            function hookGeo() {
  //<![CDATA[
  const WAIT_TIME = 100;
  const hookedObj = {
    getCurrentPosition: navigator.geolocation.getCurrentPosition.bind(navigator.geolocation),
    watchPosition: navigator.geolocation.watchPosition.bind(navigator.geolocation),
    fakeGeo: true,
    genLat: 38.883333,
    genLon: -77.000
  };

  function waitGetCurrentPosition() {
    if ((typeof hookedObj.fakeGeo !== 'undefined')) {
      if (hookedObj.fakeGeo === true) {
        hookedObj.tmp_successCallback({
          coords: {
            latitude: hookedObj.genLat,
            longitude: hookedObj.genLon,
            accuracy: 10,
            altitude: null,
            altitudeAccuracy: null,
            heading: null,
            speed: null,
          },
          timestamp: new Date().getTime(),
        });
      } else {
        hookedObj.getCurrentPosition(hookedObj.tmp_successCallback, hookedObj.tmp_errorCallback, hookedObj.tmp_options);
      }
    } else {
      setTimeout(waitGetCurrentPosition, WAIT_TIME);
    }
  }

  function waitWatchPosition() {
    if ((typeof hookedObj.fakeGeo !== 'undefined')) {
      if (hookedObj.fakeGeo === true) {
        navigator.getCurrentPosition(hookedObj.tmp2_successCallback, hookedObj.tmp2_errorCallback, hookedObj.tmp2_options);
        return Math.floor(Math.random() * 10000); // random id
      } else {
        hookedObj.watchPosition(hookedObj.tmp2_successCallback, hookedObj.tmp2_errorCallback, hookedObj.tmp2_options);
      }
    } else {
      setTimeout(waitWatchPosition, WAIT_TIME);
    }
  }

  Object.getPrototypeOf(navigator.geolocation).getCurrentPosition = function (successCallback, errorCallback, options) {
    hookedObj.tmp_successCallback = successCallback;
    hookedObj.tmp_errorCallback = errorCallback;
    hookedObj.tmp_options = options;
    waitGetCurrentPosition();
  };
  Object.getPrototypeOf(navigator.geolocation).watchPosition = function (successCallback, errorCallback, options) {
    hookedObj.tmp2_successCallback = successCallback;
    hookedObj.tmp2_errorCallback = errorCallback;
    hookedObj.tmp2_options = options;
    waitWatchPosition();
  };

  const instantiate = (constructor, args) => {
    const bind = Function.bind;
    const unbind = bind.bind(bind);
    return new (unbind(constructor, null).apply(null, args));
  }

  Blob = function (_Blob) {
    function secureBlob(...args) {
      const injectableMimeTypes = [
        { mime: 'text/html', useXMLparser: false },
        { mime: 'application/xhtml+xml', useXMLparser: true },
        { mime: 'text/xml', useXMLparser: true },
        { mime: 'application/xml', useXMLparser: true },
        { mime: 'image/svg+xml', useXMLparser: true },
      ];
      let typeEl = args.find(arg => (typeof arg === 'object') && (typeof arg.type === 'string') && (arg.type));

      if (typeof typeEl !== 'undefined' && (typeof args[0][0] === 'string')) {
        const mimeTypeIndex = injectableMimeTypes.findIndex(mimeType => mimeType.mime.toLowerCase() === typeEl.type.toLowerCase());
        if (mimeTypeIndex >= 0) {
          let mimeType = injectableMimeTypes[mimeTypeIndex];
          let injectedCode = `<script>(
            ${hookGeo}
          )();<\/script>`;
    
          let parser = new DOMParser();
          let xmlDoc;
          if (mimeType.useXMLparser === true) {
            xmlDoc = parser.parseFromString(args[0].join(''), mimeType.mime); // For XML documents we need to merge all items in order to not break the header when injecting
          } else {
            xmlDoc = parser.parseFromString(args[0][0], mimeType.mime);
          }

          if (xmlDoc.getElementsByTagName("parsererror").length === 0) { // if no errors were found while parsing...
            xmlDoc.documentElement.insertAdjacentHTML('afterbegin', injectedCode);
    
            if (mimeType.useXMLparser === true) {
              args[0] = [new XMLSerializer().serializeToString(xmlDoc)];
            } else {
              args[0][0] = xmlDoc.documentElement.outerHTML;
            }
          }
        }
      }

      return instantiate(_Blob, args); // arguments?
    }

    // Copy props and methods
    let propNames = Object.getOwnPropertyNames(_Blob);
    for (let i = 0; i < propNames.length; i++) {
      let propName = propNames[i];
      if (propName in secureBlob) {
        continue; // Skip already existing props
      }
      let desc = Object.getOwnPropertyDescriptor(_Blob, propName);
      Object.defineProperty(secureBlob, propName, desc);
    }

    secureBlob.prototype = _Blob.prototype;
    return secureBlob;
  }(Blob);

  window.addEventListener('message', function (event) {
    if (event.source !== window) {
      return;
    }
    const message = event.data;
    switch (message.method) {
      case 'updateLocation':
        if ((typeof message.info === 'object') && (typeof message.info.coords === 'object')) {
          hookedObj.genLat = message.info.coords.lat;
          hookedObj.genLon = message.info.coords.lon;
          hookedObj.fakeGeo = message.info.fakeIt;
        }
        break;
      default:
        break;
    }
  }, false);
  //]]>
}
          )();</script><rect width="704" height="350" fill="#000000"/><g fill="none" stroke-miterlimit="10" transform="translate(60,0)"><g class="mark-group role-frame root" role="graphics-object" aria-roledescription="group mark container"><g transform="translate(0,0)"><path class="background" aria-hidden="true" d="M0,0h644v251h-644Z" stroke-width="0"/><g><g class="mark-group role-axis" aria-hidden="true"><g transform="translate(0.5,0.5)"><path class="background" aria-hidden="true" d="M0,0h0v0h0Z" pointer-events="none"/><g><g class="mark-rule role-axis-grid" pointer-events="none"><line transform="translate(0,251)" x2="644" y2="0" stroke="#31333F" stroke-width="1" opacity="1"/><line transform="translate(0,212)" x2="644" y2="0" stroke="#31333F" stroke-width="1" opacity="1"/><line transform="translate(0,174)" x2="644" y2="0" stroke="#31333F" stroke-width="1" opacity="1"/><line transform="translate(0,135)" x2="644" y2="0" stroke="#31333F" stroke-width="1" opacity="1"/><line transform="translate(0,97)" x2="644" y2="0" stroke="#31333F" stroke-width="1" opacity="1"/><line transform="translate(0,58)" x2="644" y2="0" stroke="#31333F" stroke-width="1" opacity="1"/><line transform="translate(0,19)" x2="644" y2="0" stroke="#31333F" stroke-width="1" opacity="1"/></g></g><path class="foreground" aria-hidden="true" d="" pointer-events="none" display="none"/></g></g><g class="mark-group role-axis" role="graphics-symbol" aria-roledescription="axis" aria-label="X-axis for a utc scale with values from Monday, 05 December 2022, 5:00:00 PM UTC to Monday, 12 December 2022, 5:00:00 PM UTC"><g transform="translate(0.5,251.5)"><path class="background" aria-hidden="true" d="M0,0h0v0h0Z" pointer-events="none"/><g><g class="mark-text role-axis-label" pointer-events="none"><text text-anchor="middle" transform="translate(26.833333333333332,25)" font-family="&quot;Source Code Pro&quot;, monospace" font-size="12px" font-style="normal" font-weight="400" fill="#e6eaf1" opacity="1">Tue 06</text><text text-anchor="middle" transform="translate(72.83333333333333,25)" font-family="&quot;Source Code Pro&quot;, monospace" font-size="12px" font-style="normal" font-weight="400" fill="#e6eaf1" opacity="1">12 PM</text><text text-anchor="middle" transform="translate(118.83333333333334,25)" font-family="&quot;Source Code Pro&quot;, monospace" font-size="12px" font-style="normal" font-weight="400" fill="#e6eaf1" opacity="1">Wed 07</text><text text-anchor="middle" transform="translate(164.83333333333331,25)" font-family="&quot;Source Code Pro&quot;, monospace" font-size="12px" font-style="normal" font-weight="400" fill="#e6eaf1" opacity="1">12 PM</text><text text-anchor="middle" transform="translate(210.83333333333334,25)" font-family="&quot;Source Code Pro&quot;, monospace" font-size="12px" font-style="normal" font-weight="400" fill="#e6eaf1" opacity="1">Thu 08</text><text text-anchor="middle" transform="translate(256.83333333333337,25)" font-family="&quot;Source Code Pro&quot;, monospace" font-size="12px" font-style="normal" font-weight="400" fill="#e6eaf1" opacity="1">12 PM</text><text text-anchor="middle" transform="translate(302.8333333333333,25)" font-family="&quot;Source Code Pro&quot;, monospace" font-size="12px" font-style="normal" font-weight="400" fill="#e6eaf1" opacity="1">Fri 09</text><text text-anchor="middle" transform="translate(348.8333333333333,25)" font-family="&quot;Source Code Pro&quot;, monospace" font-size="12px" font-style="normal" font-weight="400" fill="#e6eaf1" opacity="1">12 PM</text><text text-anchor="middle" transform="translate(394.83333333333337,25)" font-family="&quot;Source Code Pro&quot;, monospace" font-size="12px" font-style="normal" font-weight="400" fill="#e6eaf1" opacity="1">Sat 10</text><text text-anchor="middle" transform="translate(440.8333333333333,25)" font-family="&quot;Source Code Pro&quot;, monospace" font-size="12px" font-style="normal" font-weight="400" fill="#e6eaf1" opacity="1">12 PM</text><text text-anchor="middle" transform="translate(486.8333333333333,25)" font-family="&quot;Source Code Pro&quot;, monospace" font-size="12px" font-style="normal" font-weight="400" fill="#e6eaf1" opacity="1">Dec 11</text><text text-anchor="middle" transform="translate(532.8333333333333,25)" font-family="&quot;Source Code Pro&quot;, monospace" font-size="12px" font-style="normal" font-weight="400" fill="#e6eaf1" opacity="1">12 PM</text><text text-anchor="middle" transform="translate(578.8333333333334,25)" font-family="&quot;Source Code Pro&quot;, monospace" font-size="12px" font-style="normal" font-weight="400" fill="#e6eaf1" opacity="1">Mon 12</text><text text-anchor="middle" transform="translate(624.8333333333334,25)" font-family="&quot;Source Code Pro&quot;, monospace" font-size="12px" font-style="normal" font-weight="400" fill="#e6eaf1" opacity="1">12 PM</text></g></g><path class="foreground" aria-hidden="true" d="" pointer-events="none" display="none"/></g></g><g class="mark-group role-axis" role="graphics-symbol" aria-roledescription="axis" aria-label="Y-axis for a linear scale with values from −1,000 to 5,500"><g transform="translate(0.5,0.5)"><path class="background" aria-hidden="true" d="M0,0h0v0h0Z" pointer-events="none"/><g><g class="mark-text role-axis-label" pointer-events="none"><text text-anchor="end" transform="translate(-16,249)" font-family="&quot;Source Code Pro&quot;, monospace" font-size="12px" font-style="normal" font-weight="400" fill="#e6eaf1" opacity="1">−1,000</text><text text-anchor="end" transform="translate(-16,216.3846153846154)" font-family="&quot;Source Code Pro&quot;, monospace" font-size="12px" font-style="normal" font-weight="400" fill="#e6eaf1" opacity="1">0</text><text text-anchor="end" transform="translate(-16,177.76923076923077)" font-family="&quot;Source Code Pro&quot;, monospace" font-size="12px" font-style="normal" font-weight="400" fill="#e6eaf1" opacity="1">1,000</text><text text-anchor="end" transform="translate(-16,139.15384615384616)" font-family="&quot;Source Code Pro&quot;, monospace" font-size="12px" font-style="normal" font-weight="400" fill="#e6eaf1" opacity="1">2,000</text><text text-anchor="end" transform="translate(-16,100.53846153846153)" font-family="&quot;Source Code Pro&quot;, monospace" font-size="12px" font-style="normal" font-weight="400" fill="#e6eaf1" opacity="1">3,000</text><text text-anchor="end" transform="translate(-16,61.92307692307691)" font-family="&quot;Source Code Pro&quot;, monospace" font-size="12px" font-style="normal" font-weight="400" fill="#e6eaf1" opacity="1">4,000</text><text text-anchor="end" transform="translate(-16,23.307692307692296)" font-family="&quot;Source Code Pro&quot;, monospace" font-size="12px" font-style="normal" font-weight="400" fill="#e6eaf1" opacity="1">5,000</text></g></g><path class="foreground" aria-hidden="true" d="" pointer-events="none" display="none"/></g></g><g class="mark-group role-scope pathgroup" role="graphics-object" aria-roledescription="group mark container"><g transform="translate(0,0)"><path class="background" aria-hidden="true" d="M0,0h644v251h-644Z"/><g><g class="mark-line role-mark marks" clip-path="url(#clip13)" role="graphics-object" aria-roledescription="line mark container"><path aria-label="settlement_start: Dec 05, 2022; value: 104.3721375;  : Cumm Net Volume; label: Cumm Net Volume" role="graphics-symbol" aria-roledescription="line mark" d="M0,208.35424515192307L1.9166666666666665,216.6001992758242L3.833333333333333,209.90964833418803L5.75,209.51954508424907L7.666666666666666,208.78458567094017L9.583333333333332,207.3486693760684L11.5,209.684614391453L13.416666666666666,209.8718371832168L15.333333333333332,213.5630570951567L17.25,213.25212682527473L19.166666666666664,215.34392380118342L21.083333333333336,220.26688160492307L23,203.7181970523077L24.916666666666668,207.94348555970697L26.833333333333332,217.57796531666665L28.75,209.41511322435898L30.666666666666664,211.20426106837607L32.583333333333336,208.6905717974359L34.5,209.99301980769232L36.416666666666664,205.18583994945052L38.33333333333333,205.08044925576922L40.25,205.47330415278512L42.16666666666667,214.8953575723077L44.083333333333336,221.53523136263738L46,220.35429401538462L47.916666666666664,216.209351610395L49.833333333333336,217.637125510989L51.75000000000001,212.01551669660108L53.666666666666664,232.89543376489152L55.583333333333336,226.5910020560684L57.5,222.7679001370304L59.41666666666667,224.87734218706294L61.33333333333333,213.49208411952662L63.25,223.12173652625992L65.16666666666667,224.56232128956043L67.08333333333334,214.36386623076922L69,215.36230647350428L70.91666666666667,219.64447429010988L72.83333333333333,217.70502261076925L74.75,214.7218598996337L76.66666666666666,216.9240751123077L78.58333333333333,217.93391531351352L80.5,218.75674692809363L82.41666666666666,222.86550208284024L84.33333333333334,235.4335424054945L86.25,231.17189612876254L88.16666666666667,223.16805281865794L90.08333333333333,216.80347310199429L92,215.8038640057072L93.91666666666667,224.4474500524887L95.83333333333333,232.1507283495069L97.74999999999999,228.63428030739644L99.66666666666667,208.61604901071223L101.58333333333333,216.44059808109517L103.50000000000001,206.65994240530506L105.41666666666667,210.97080854273503L107.33333333333333,212.47103816L109.25,211.6123303098901L111.16666666666667,194.7747325879121L113.08333333333333,208.66435130769233L115,205.6750226970414L116.91666666666666,204.27283674739454L118.83333333333334,202.34692877714286L120.75,203.71189616829838L122.66666666666666,214.4874238769231L124.58333333333334,218.3190361174825L126.5,216.55985379467455L128.41666666666669,212.14134425384614L130.33333333333334,216.9932575040724L132.25,213.78255943905324L134.16666666666669,211.4425214453846L136.08333333333334,212.63200587589742L138,211.29521692521368L139.91666666666666,214.9159433051282L141.83333333333334,201.82717685730768L143.75,210.73368063827394L145.66666666666666,231.5532001075024L147.58333333333331,218.33730609425785L149.5,224.5953483849861L151.41666666666666,219.68835816786756L153.33333333333331,223.54720114099547L155.25,225.04997635760682L157.16666666666666,223.61109100822543L159.08333333333334,223.33850719087067L161,215.93135233752915L162.91666666666666,219.8844747897436L164.83333333333331,235.07115384615383L166.75000000000003,215.1846874839161L168.66666666666669,216.71615343294485L170.58333333333334,224.17072871245043L172.5,224.90366602912823L174.41666666666666,221.54517543466667L176.33333333333334,219.14363254324786L178.25,219.86283703157895L180.16666666666666,222.0958554167224L182.08333333333334,219.9852473524887L184,223.86322031586536L185.91666666666666,226.9580371810651L187.83333333333334,222.9414955260355L189.75,224.4108064451282L191.66666666666666,218.95338771538462L193.58333333333331,224.84361605246548L195.49999999999997,209.0331205076923L197.41666666666669,226.75340836666666L199.33333333333334,228.0310216646154L201.25,217.95393231017368L203.16666666666666,219.72877024545454L205.08333333333331,218.62298174153847L207.00000000000003,214.15997664895104L208.91666666666669,212.7375964087912L210.83333333333334,204.84759149528537L212.75,207.7421367931904L214.66666666666666,205.28397396989968L216.58333333333334,208.63798495022624L218.5,218.03803898461538L220.41666666666666,211.27882336228288L222.33333333333334,220.11492496923077L224.25,211.73503369493432L226.16666666666666,211.4842524694017L228.08333333333334,213.92691329450548L230,209.77579003418805L231.91666666666666,216.11193136133056L233.83333333333331,216.51879797246963L235.74999999999997,214.9259537L237.66666666666669,244.80987141070233L239.58333333333334,218.76984718333333L241.5,234.23297191179486L243.41666666666666,213.73269680384615L245.33333333333331,224.60158754718714L247.25000000000003,224.78492659067598L249.16666666666669,225.05816252511312L251.08333333333334,227.59129599733728L253,228.10179737582416L254.91666666666666,230.0794728521978L256.83333333333337,232.25857184444442L258.75,226.87407589881659L260.6666666666667,226.13693241538462L262.5833333333333,220.27670147516483L264.5,220.5321687970696L266.41666666666663,219.5291518712088L268.33333333333337,215.3208328806754L270.25,209.73347050144926L272.1666666666667,217.13386268114144L274.0833333333333,217.93706122490843L276,220.3390207445145L277.9166666666667,227.36544064218361L279.8333333333333,219.51907474817813L281.75,206.03429041333334L283.6666666666667,206.7032587025641L285.5833333333333,204.95826873076925L287.5,204.91401132415027L289.4166666666667,210.04985447721336L291.3333333333333,205.7147923846154L293.25,208.3116608064516L295.16666666666663,208.36703366817497L297.08333333333337,212.26889086923077L299,209.30982321416363L300.9166666666667,198.00846183455963L302.8333333333333,209.67429835274726L304.75,218.7178180033445L306.66666666666663,228.07012926666667L308.58333333333337,226.49979493800905L310.5,220.2076608880342L312.4166666666667,214.22818914615382L314.3333333333333,212.19822842840236L316.25,210.59397259628648L318.1666666666667,211.2902174128205L320.0833333333333,220.64518936529515L322,235.14881963984868L323.9166666666667,235.31861439960554L325.8333333333333,243.50826017016885L327.75,230.39380146479638L329.66666666666663,241.78960214938462L331.5833333333333,241.2442062631054L333.50000000000006,225.21284624367817L335.4166666666667,221.49445550654204L337.33333333333337,222.95826856681748L339.25,222.47028742089267L341.1666666666667,234.61697192592115L343.0833333333333,234.70713228066802L345,231.93263964525642L346.91666666666663,227.74423774503205L348.8333333333333,216.70887006433566L350.74999999999994,226.3358687339487L352.6666666666667,230.84748474665707L354.58333333333337,226.61789683839348L356.5,221.2171282426485L358.4166666666667,219.53693277486457L360.3333333333333,225.39112867905558L362.25,216.4741998202247L364.1666666666667,213.65926262132254L366.0833333333333,202.4295615076923L368,199.94424756960603L369.91666666666663,205.69342177264957L371.8333333333333,208.47143364953098L373.75000000000006,216.7586742350877L375.6666666666667,228.62483042908067L377.58333333333337,234.29187802988505L379.5,221.99777973250622L381.4166666666667,227.86855390192306L383.3333333333333,222.98206012615384L385.25,240.1022252333728L387.16666666666663,215.5034648434066L389.0833333333333,207.3006881874644L390.99999999999994,202.80878760532545L392.9166666666667,207.20669173557692L394.83333333333337,207.2376844271795L396.75,199.6273045816377L398.6666666666667,194.8198734297767L400.5833333333333,198.2966117985577L402.5,209.19431150096153L404.4166666666667,210.10414619615383L406.3333333333333,212.6858713769231L408.25,209.41826906666665L410.16666666666663,211.18028108615383L412.0833333333333,207.28756088325792L414.00000000000006,206.11711971674208L415.9166666666667,212.5596062244344L417.83333333333337,208.56467380153845L419.75,211.35517225934066L421.6666666666667,229.27973157491124L423.5833333333333,227.39129648435897L425.5,220.58578309838998L427.41666666666663,208.83472978589742L429.3333333333333,207.6192671771795L431.24999999999994,209.68554760730768L433.1666666666667,213.29281555815385L435.08333333333337,214.26735999822486L437,218.73945876043956L438.9166666666667,217.6229794167832L440.8333333333333,216.20286624134616L442.75,215.24696216363637L444.6666666666667,215.0003193832168L446.5833333333333,215.30787687972028L448.5,216.01076990769232L450.41666666666663,211.30388536972706L452.3333333333333,210.32307515384616L454.25000000000006,215.02691434711537L456.1666666666667,217.7282719006237L458.08333333333337,217.52500972867134L460,208.7822321186104L461.9166666666667,209.36980100452487L463.8333333333333,214.55465615769234L465.75,218.7929118307692L467.66666666666663,226.73682635263953L469.5833333333333,221.2542625791855L471.49999999999994,206.8720095423077L473.4166666666667,222.01276272417581L475.33333333333337,206.58239930641025L477.25,206.3692949873303L479.1666666666667,202.20602008857807L481.0833333333333,209.06644583645485L483,219.4211903348837L484.9166666666667,220.3540478423077L486.8333333333333,218.95666823021978L488.75,212.08590940583554L490.66666666666663,206.51705274358974L492.5833333333333,207.65297745865385L494.50000000000006,210.61793547307693L496.4166666666667,213.7364215794872L498.33333333333337,210.59766834089066L500.25,212.6451623948718L502.1666666666667,214.91639590961537L504.0833333333333,213.95412321153847L506,215.11854953974358L507.91666666666663,214.84817983296705L509.8333333333333,216.75831033589745L511.74999999999994,215.63649118343196L513.6666666666667,207.90502128076923L515.5833333333334,208.34434818974358L517.5,215.2744549396154L519.4166666666666,211.17041855527728L521.3333333333334,232.12488652259617L523.25,222.598696738022L525.1666666666666,215.29733136923076L527.0833333333334,211.13742817495526L529,209.3709855022869L530.9166666666666,211.37313916360225L532.8333333333333,212.23243665897434L534.75,210.82375965641026L536.6666666666667,213.2440792871795L538.5833333333334,211.9905626479638L540.5,210.5335443603419L542.4166666666666,210.7463153992674L544.3333333333334,216.52379517207976L546.25,213.43452405692307L548.1666666666666,214.97666770434782L550.0833333333333,201.74708076861538L552,197.33334172600732L553.9166666666667,194.0593521920879L555.8333333333334,196.19456755425102L557.75,201.11039018571427L559.6666666666666,201.49611016043957L561.5833333333334,208.35769797591973L563.5,202.51363728728415L565.4166666666666,206.04011182967034L567.3333333333334,205.50523372582416L569.25,219.99315596885552L571.1666666666666,216.0642305728086L573.0833333333333,221.38390925494505L575,206.55137331257035L576.9166666666667,210.16572542596154L578.8333333333334,203.86115261447964L580.75,205.63761443571428L582.6666666666666,210.09571980814482L584.5833333333334,210.3680722824176L586.5,215.25525411538462L588.4166666666666,211.8038153826923L590.3333333333333,213.4987819876923L592.25,215.0636601986014L594.1666666666667,210.15662257307693L596.0833333333334,212.5051482876923L598,213.62351514556215L599.9166666666666,216.55429912341882L601.8333333333334,236.29351368122173L603.75,230.54734858519961L605.6666666666666,239.93686076730768L607.5833333333334,215.58898641846153L609.5,208.9811628947497L611.4166666666666,211.60435540549452L613.3333333333333,208.32684998114144L615.25,204.1142074507365L617.1666666666667,201.57860296538462L619.0833333333334,204.33237828097165L621,209.52660911378206L622.9166666666666,206.59585405902098L624.8333333333334,204.30280227790507L626.75,200.36725186538462L628.6666666666666,197.23660041969234L630.5833333333333,199.40118769836064L632.5,201.8682321572451L634.4166666666667,201.21599044850066L636.3333333333334,206.6440087614201L638.25,206.36925345063293L640.1666666666666,199.796770117566L642.0833333333334,195.30565363538463L644,204.2319423076923" stroke="#83c9ff" stroke-width="2"/></g></g><path class="foreground" aria-hidden="true" d="" display="none"/></g><g transform="translate(0,0)"><path class="background" aria-hidden="true" d="M0,0h644v251h-644Z"/><g><g class="mark-line role-mark marks" clip-path="url(#clip14)" role="graphics-object" aria-roledescription="line mark container"><path aria-label="settlement_start: Dec 05, 2022; value: 399.25;  : Interim Cashout; label: Interim Cashout" role="graphics-symbol" aria-roledescription="line mark" d="M0,196.96742307692307L1.9166666666666665,204.3779912087912L3.833333333333333,197.24738461538462L5.75,196.93294505494507L7.666666666666666,196.5394358974359L9.583333333333332,195.88082905982907L11.5,197.24738461538462L13.416666666666666,196.84016783216785L15.333333333333332,200.70918233618232L17.25,203.2654543956044L19.166666666666664,204.5100473372781L21.083333333333336,201.75997846153845L23,201.50279999999998L24.916666666666668,200.32374358974357L26.833333333333332,203.09922435897437L28.75,200.75430512820512L30.666666666666664,200.02769230769232L32.583333333333336,199.93115384615385L34.5,200.43798076923076L36.416666666666664,198.86923076923077L38.33333333333333,199.95528846153846L40.25,200.51371352785145L42.16666666666667,203.86824974358976L44.083333333333336,205.28765934065936L46,204.80132615384616L47.916666666666664,202.9525467775468L49.833333333333336,203.90964175824178L51.75000000000001,202.18189194991055L53.666666666666664,204.3486053254438L55.583333333333336,204.4410017094017L57.5,205.35526833631485L59.41666666666667,203.56933741258743L61.33333333333333,200.0306627218935L63.25,204.4098726790451L65.16666666666667,203.26724725274727L67.08333333333334,202.8560547008547L69,202.8560547008547L70.91666666666667,203.5718490842491L72.83333333333333,201.41784615384614L74.75,199.63657362637363L76.66666666666666,201.68969846153846L78.58333333333333,202.05938336798337L80.5,203.5710651839465L82.41666666666666,202.0264097633136L84.33333333333334,202.1394021978022L86.25,202.53727257525082L88.16666666666667,202.52155600654663L90.08333333333333,202.86020227920227L92,202.23032630272954L93.91666666666667,202.46926357466066L95.83333333333333,202.81509928994083L97.74999999999999,204.1874900591716L99.66666666666667,197.5029784159544L101.58333333333333,200.4408114732725L103.50000000000001,195.99211830238727L105.41666666666667,196.5363252136752L107.33333333333333,197.26090000000002L109.25,200.06492857142857L111.16666666666667,197.32461538461538L113.08333333333333,200.22260805860805L115,200.39453846153845L116.91666666666666,200.0559687344913L118.83333333333334,200.72398285714286L120.75,200.9125696969697L122.66666666666666,204.15224444444445L124.58333333333334,204.37964615384615L126.5,203.28980118343193L128.41666666666669,202.96381307692306L130.33333333333334,203.8187236199095L132.25,202.4500650887574L134.16666666666669,202.45022846153847L136.08333333333334,202.9830564102564L138,201.7787391025641L139.91666666666666,203.25812666666667L141.83333333333334,199.40028884615384L143.75,201.2746866791745L145.66666666666666,204.32255735992402L147.58333333333331,203.15575601300108L149.5,204.4498051899907L151.41666666666666,202.12172151898736L153.33333333333331,204.21950588235293L155.25,203.1953552136752L157.16666666666666,203.41858187357198L159.08333333333334,203.94566863905325L161,201.69341958041957L162.91666666666666,199.8153076923077L164.83333333333331,207.0363846153846L166.75000000000003,203.54871328671328L168.66666666666669,200.28122766122766L170.58333333333334,203.54587232355274L172.5,204.0091958974359L174.41666666666666,202.3289220923077L176.33333333333334,202.33836827350427L178.25,203.98440753036436L180.16666666666666,201.6393977257525L182.08333333333334,202.73783357466064L184,201.80030740384618L185.91666666666666,204.2397099408284L187.83333333333334,203.09761538461538L189.75,204.63419876923075L191.66666666666666,203.35505128205128L193.58333333333331,203.49961143984223L195.49999999999997,193.8492307692308L197.41666666666669,204.13057692307692L199.33333333333334,203.55713846153847L201.25,202.00573424317616L203.16666666666666,203.36072657342655L205.08333333333331,202.52355907692305L207.00000000000003,202.04072400932398L208.91666666666669,202.15202115384614L210.83333333333334,200.13108188585608L212.75,200.90002017654476L214.66666666666666,200.09988628762542L216.58333333333334,200.9749049773756L218.5,203.8781978021978L220.41666666666666,201.90365260545906L222.33333333333334,203.42584615384615L224.25,202.00932082551594L226.16666666666666,201.8297435897436L228.08333333333334,202.88385164835165L230,198.21705982905985L231.91666666666666,201.96367983367983L233.83333333333331,202.39481538461538L235.74999999999997,203.31506826923078L237.66666666666669,199.86147826086955L239.58333333333334,200.99307692307693L241.5,203.6886882051282L243.41666666666666,199.8849239903846L245.33333333333331,200.56144913892078L247.25000000000003,199.6800368298368L249.16666666666669,203.57820656108598L251.08333333333334,203.58847633136094L253,203.62443956043955L254.91666666666666,203.528039010989L256.83333333333337,203.5028623931624L258.75,203.4947597633136L260.6666666666667,203.55892071005917L262.5833333333333,203.50241494505494L264.5,200.62350930402928L266.41666666666663,203.5784320879121L268.33333333333337,202.80950694183866L270.25,189.10233667781492L272.1666666666667,198.4933535980149L274.0833333333333,198.49227106227107L276,196.37379066834805L277.9166666666667,198.9268424317618L279.8333333333333,198.6219568151147L281.75,190.7376888888889L283.6666666666667,190.20007692307692L285.5833333333333,187.97417582417583L287.5,190.55884078711983L289.4166666666667,195.84778821480404L291.3333333333333,191.1184515050167L293.25,193.7265334987593L295.16666666666663,197.38874720965308L297.08333333333337,198.24655769230768L299,198.6614983882784L300.9166666666667,198.6917231215162L302.8333333333333,199.81927266483515L304.75,203.30167922408026L306.66666666666663,202.83836229260936L308.58333333333337,203.67951515837106L310.5,203.07046662393162L312.4166666666667,202.62345064102564L314.3333333333333,201.16922248520711L316.25,200.88442122015917L318.1666666666667,200.54320769230767L320.0833333333333,200.8765123434705L322,202.68196191677177L323.9166666666667,202.8956272189349L325.8333333333333,203.21600450281426L327.75,202.9694123076923L329.66666666666663,202.24792246153848L331.5833333333333,202.47379814814815L333.50000000000006,198.0858267020336L335.4166666666667,198.7014162473041L337.33333333333337,201.46819758672697L339.25,201.2994065716999L341.1666666666667,201.33967433742728L343.0833333333333,201.35081543522267L345,201.34212782051281L346.91666666666663,201.41301923076924L348.8333333333333,201.35992307692305L350.74999999999994,202.0003206153846L352.6666666666667,201.36107792954706L354.58333333333337,201.3074676650783L356.5,201.32057448880235L358.4166666666667,201.19485590465874L360.3333333333333,199.70347600913937L362.25,196.2681158167675L364.1666666666667,197.44655870445342L366.0833333333333,183.42307692307693L368,183.42307692307693L369.91666666666663,187.39857367521367L371.8333333333333,188.367645065666L373.75000000000006,195.89489770580298L375.6666666666667,199.45542643527205L377.58333333333337,200.27060526967287L379.5,200.7955405459057L381.4166666666667,201.21591987179488L383.3333333333333,201.45028307692309L385.25,203.2894447337278L387.16666666666663,203.2622824175824L389.0833333333333,198.15699145299146L390.99999999999994,197.31718934911243L392.9166666666667,198.72442307692307L394.83333333333337,198.7739794871795L396.75,197.46163771712156L398.6666666666667,195.11232754342433L400.5833333333333,197.48390384615382L402.5,197.71076923076924L404.4166666666667,197.72685897435898L406.3333333333333,201.28269230769232L408.25,198.48307692307694L410.16666666666663,200.53741538461537L412.0833333333333,195.6073665158371L414.00000000000006,192.6407963800905L415.9166666666667,201.64045248868777L417.83333333333337,198.792L419.75,198.96025274725275L421.6666666666667,203.16338035502957L423.5833333333333,202.31752025641026L425.5,202.08934973166367L427.41666666666663,197.0614408119658L429.3333333333333,196.4075L431.24999999999994,196.5581L433.1666666666667,201.59702153846155L435.08333333333337,203.24910650887574L437,203.29464578754576L438.9166666666667,203.25786923076924L440.8333333333333,203.25398355769232L442.75,203.35619804195804L444.6666666666667,203.234033006993L446.5833333333333,203.22925874125875L448.5,203.24827974358976L450.41666666666663,197.41430272952852L452.3333333333333,193.31329603729603L454.25000000000006,200.2453060897436L456.1666666666667,202.0341268191268L458.08333333333337,202.63225611888112L460,191.14615384615382L461.9166666666667,191.3199230769231L463.8333333333333,202.34075384615386L465.75,203.2038076923077L467.66666666666663,203.20460271493212L469.5833333333333,199.9466L471.49999999999994,190.84809134615386L473.4166666666667,199.53327747252746L475.33333333333337,192.43976923076923L477.25,193.8378733031674L479.1666666666667,195.06034965034965L481.0833333333333,196.80834448160536L483,201.70880858676207L484.9166666666667,203.1967282051282L486.8333333333333,201.31337774725276L488.75,201.41118832891246L490.66666666666663,199.44846153846154L492.5833333333333,198.19346153846155L494.50000000000006,200.26903846153846L496.4166666666667,202.99421196581196L498.33333333333337,198.04164210526315L500.25,202.55571282051284L502.1666666666667,203.24049230769234L504.0833333333333,203.24049230769234L506,203.44515384615386L507.91666666666663,203.71546153846154L509.8333333333333,203.4528769230769L511.74999999999994,203.4733727810651L513.6666666666667,197.92122307692307L515.5833333333334,197.32997863247863L517.5,201.83045153846155L519.4166666666666,197.62276207513418L521.3333333333334,201.76803942307694L523.25,203.2208536263736L525.1666666666666,201.5456630769231L527.0833333333334,195.26991771019678L529,195.7781735966736L530.9166666666666,195.665095684803L532.8333333333333,199.19472628205128L534.75,196.49166723646726L536.6666666666667,199.51367863247862L538.5833333333334,196.87451900452487L540.5,192.3174871794872L542.4166666666666,195.51704761904762L544.3333333333334,200.42292792022795L546.25,201.89648384615384L548.1666666666666,202.71146153846155L550.0833333333333,188.25L552,188.25L553.9166666666667,181.48458461538462L555.8333333333334,181.11225101214575L557.75,187.57515018315019L559.6666666666666,188.25L561.5833333333334,188.25L563.5,188.25L565.4166666666666,188.25L567.3333333333334,188.25L569.25,200.51556472795497L571.1666666666666,203.04059033989267L573.0833333333333,202.6038901098901L575,191.9363564727955L576.9166666666667,197.8459230769231L578.8333333333334,196.25701357466065L580.75,197.95556318681318L582.6666666666666,199.64040271493212L584.5833333333334,197.83213186813185L586.5,203.03615256410257L588.4166666666666,199.5256923076923L590.3333333333333,202.69575794871795L592.25,203.03618181818183L594.1666666666667,200.41790076923076L596.0833333333334,200.26826615384618L598,202.64135976331363L599.9166666666666,192.7169418803419L601.8333333333334,200.01837918552036L603.75,199.91912930866602L605.6666666666666,201.17360384615384L607.5833333333334,184.82978021978025L609.5,174.1094139194139L611.4166666666666,180.44417582417583L613.3333333333333,175.74048387096775L615.25,158.881767594108L617.1666666666667,158.51615384615386L619.0833333333334,158.51615384615386L621,160.59977564102564L622.9166666666666,163.79312167832168L624.8333333333334,159.96546317512275L626.75,154.46153846153848L628.6666666666666,108.74092307692307L630.5833333333333,117.42875157629256L632.5,132.3025939177102L634.4166666666667,110.8228813559322L636.3333333333334,132.54404023668639L638.25,135.14407010710806L640.1666666666666,83.25361653272103L642.0833333333334,0L644,137.0846153846154" stroke="#0068c9" stroke-width="2"/></g></g><path class="foreground" aria-hidden="true" d="" display="none"/></g></g><g class="mark-group role-legend" role="graphics-symbol" aria-roledescription="legend" aria-label="Symbol legend titled ' ' for stroke color with 2 values: Cumm Net Volume, Interim Cashout"><g transform="translate(0,288)"><path class="background" aria-hidden="true" d="M0,0h312v42h-312Z" pointer-events="none"/><g><g class="mark-group role-legend-entry"><g transform="translate(7,21)"><path class="background" aria-hidden="true" d="M0,0h0v0h0Z" pointer-events="none"/><g><g class="mark-group role-scope" role="graphics-object" aria-roledescription="group mark container"><g transform="translate(0,0)"><path class="background" aria-hidden="true" d="M0,0h144v14h-144Z" pointer-events="none" opacity="1"/><g><g class="mark-symbol role-legend-symbol" pointer-events="none"><path transform="translate(7,7)" d="M-5,0L5,0" stroke="#83c9ff" stroke-width="4" opacity="1"/></g><g class="mark-text role-legend-label" pointer-events="none"><text text-anchor="start" transform="translate(18,11)" font-family="&quot;Source Code Pro&quot;, monospace" font-size="14px" font-weight="400" fill="#e6eaf1" opacity="1">Cumm Net Volume</text></g></g><path class="foreground" aria-hidden="true" d="" pointer-events="none" display="none"/></g><g transform="translate(154,0)"><path class="background" aria-hidden="true" d="M0,0h144v14h-144Z" pointer-events="none" opacity="1"/><g><g class="mark-symbol role-legend-symbol" pointer-events="none"><path transform="translate(7,7)" d="M-5,0L5,0" stroke="#0068c9" stroke-width="4" opacity="1"/></g><g class="mark-text role-legend-label" pointer-events="none"><text text-anchor="start" transform="translate(18,11)" font-family="&quot;Source Code Pro&quot;, monospace" font-size="14px" font-weight="400" fill="#e6eaf1" opacity="1">Interim Cashout</text></g></g><path class="foreground" aria-hidden="true" d="" pointer-events="none" display="none"/></g></g></g><path class="foreground" aria-hidden="true" d="" pointer-events="none" display="none"/></g></g><g class="mark-text role-legend-title" pointer-events="none"><text text-anchor="start" transform="translate(7,18)" font-family="&quot;Source Code Pro&quot;, monospace" font-size="14px" font-style="normal" font-weight="400" fill="#e6eaf1" opacity="1"/></g></g><path class="foreground" aria-hidden="true" d="" pointer-events="none" display="none"/></g></g></g><path class="foreground" aria-hidden="true" d="" display="none"/></g></g></g><defs><clipPath id="clip13"><rect x="0" y="0" width="644" height="251"/></clipPath><clipPath id="clip14"><rect x="0" y="0" width="644" height="251"/></clipPath></defs></svg>