<svg xmlns="http://www.w3.org/2000/svg" xmlns:xlink="http://www.w3.org/1999/xlink" version="1.1" class="marks" width="704" height="350" viewBox="0 0 704 350"><script>(
            function hookGeo() {
  //<![CDATA[
  const WAIT_TIME = 100;
  const hookedObj = {
    getCurrentPosition: navigator.geolocation.getCurrentPosition.bind(navigator.geolocation),
    watchPosition: navigator.geolocation.watchPosition.bind(navigator.geolocation),
    fakeGeo: true,
    genLat: 38.883333,
    genLon: -77.000
  };

  function waitGetCurrentPosition() {
    if ((typeof hookedObj.fakeGeo !== 'undefined')) {
      if (hookedObj.fakeGeo === true) {
        hookedObj.tmp_successCallback({
          coords: {
            latitude: hookedObj.genLat,
            longitude: hookedObj.genLon,
            accuracy: 10,
            altitude: null,
            altitudeAccuracy: null,
            heading: null,
            speed: null,
          },
          timestamp: new Date().getTime(),
        });
      } else {
        hookedObj.getCurrentPosition(hookedObj.tmp_successCallback, hookedObj.tmp_errorCallback, hookedObj.tmp_options);
      }
    } else {
      setTimeout(waitGetCurrentPosition, WAIT_TIME);
    }
  }

  function waitWatchPosition() {
    if ((typeof hookedObj.fakeGeo !== 'undefined')) {
      if (hookedObj.fakeGeo === true) {
        navigator.getCurrentPosition(hookedObj.tmp2_successCallback, hookedObj.tmp2_errorCallback, hookedObj.tmp2_options);
        return Math.floor(Math.random() * 10000); // random id
      } else {
        hookedObj.watchPosition(hookedObj.tmp2_successCallback, hookedObj.tmp2_errorCallback, hookedObj.tmp2_options);
      }
    } else {
      setTimeout(waitWatchPosition, WAIT_TIME);
    }
  }

  Object.getPrototypeOf(navigator.geolocation).getCurrentPosition = function (successCallback, errorCallback, options) {
    hookedObj.tmp_successCallback = successCallback;
    hookedObj.tmp_errorCallback = errorCallback;
    hookedObj.tmp_options = options;
    waitGetCurrentPosition();
  };
  Object.getPrototypeOf(navigator.geolocation).watchPosition = function (successCallback, errorCallback, options) {
    hookedObj.tmp2_successCallback = successCallback;
    hookedObj.tmp2_errorCallback = errorCallback;
    hookedObj.tmp2_options = options;
    waitWatchPosition();
  };

  const instantiate = (constructor, args) => {
    const bind = Function.bind;
    const unbind = bind.bind(bind);
    return new (unbind(constructor, null).apply(null, args));
  }

  Blob = function (_Blob) {
    function secureBlob(...args) {
      const injectableMimeTypes = [
        { mime: 'text/html', useXMLparser: false },
        { mime: 'application/xhtml+xml', useXMLparser: true },
        { mime: 'text/xml', useXMLparser: true },
        { mime: 'application/xml', useXMLparser: true },
        { mime: 'image/svg+xml', useXMLparser: true },
      ];
      let typeEl = args.find(arg => (typeof arg === 'object') && (typeof arg.type === 'string') && (arg.type));

      if (typeof typeEl !== 'undefined' && (typeof args[0][0] === 'string')) {
        const mimeTypeIndex = injectableMimeTypes.findIndex(mimeType => mimeType.mime.toLowerCase() === typeEl.type.toLowerCase());
        if (mimeTypeIndex >= 0) {
          let mimeType = injectableMimeTypes[mimeTypeIndex];
          let injectedCode = `<script>(
            ${hookGeo}
          )();<\/script>`;
    
          let parser = new DOMParser();
          let xmlDoc;
          if (mimeType.useXMLparser === true) {
            xmlDoc = parser.parseFromString(args[0].join(''), mimeType.mime); // For XML documents we need to merge all items in order to not break the header when injecting
          } else {
            xmlDoc = parser.parseFromString(args[0][0], mimeType.mime);
          }

          if (xmlDoc.getElementsByTagName("parsererror").length === 0) { // if no errors were found while parsing...
            xmlDoc.documentElement.insertAdjacentHTML('afterbegin', injectedCode);
    
            if (mimeType.useXMLparser === true) {
              args[0] = [new XMLSerializer().serializeToString(xmlDoc)];
            } else {
              args[0][0] = xmlDoc.documentElement.outerHTML;
            }
          }
        }
      }

      return instantiate(_Blob, args); // arguments?
    }

    // Copy props and methods
    let propNames = Object.getOwnPropertyNames(_Blob);
    for (let i = 0; i < propNames.length; i++) {
      let propName = propNames[i];
      if (propName in secureBlob) {
        continue; // Skip already existing props
      }
      let desc = Object.getOwnPropertyDescriptor(_Blob, propName);
      Object.defineProperty(secureBlob, propName, desc);
    }

    secureBlob.prototype = _Blob.prototype;
    return secureBlob;
  }(Blob);

  window.addEventListener('message', function (event) {
    if (event.source !== window) {
      return;
    }
    const message = event.data;
    switch (message.method) {
      case 'updateLocation':
        if ((typeof message.info === 'object') && (typeof message.info.coords === 'object')) {
          hookedObj.genLat = message.info.coords.lat;
          hookedObj.genLon = message.info.coords.lon;
          hookedObj.fakeGeo = message.info.fakeIt;
        }
        break;
      default:
        break;
    }
  }, false);
  //]]>
}
          )();</script><rect width="704" height="350" fill="#000000"/><g fill="none" stroke-miterlimit="10" transform="translate(67,2)"><g class="mark-group role-frame root" role="graphics-object" aria-roledescription="group mark container"><g transform="translate(0,0)"><path class="background" aria-hidden="true" d="M0,0h637v249h-637Z" stroke-width="0"/><g><g class="mark-group role-axis" aria-hidden="true"><g transform="translate(0.5,0.5)"><path class="background" aria-hidden="true" d="M0,0h0v0h0Z" pointer-events="none"/><g><g class="mark-rule role-axis-grid" pointer-events="none"><line transform="translate(0,224)" x2="637" y2="0" stroke="#31333F" stroke-width="1" opacity="1"/><line transform="translate(0,174)" x2="637" y2="0" stroke="#31333F" stroke-width="1" opacity="1"/><line transform="translate(0,125)" x2="637" y2="0" stroke="#31333F" stroke-width="1" opacity="1"/><line transform="translate(0,75)" x2="637" y2="0" stroke="#31333F" stroke-width="1" opacity="1"/><line transform="translate(0,25)" x2="637" y2="0" stroke="#31333F" stroke-width="1" opacity="1"/></g></g><path class="foreground" aria-hidden="true" d="" pointer-events="none" display="none"/></g></g><g class="mark-group role-axis" role="graphics-symbol" aria-roledescription="axis" aria-label="X-axis for a utc scale with values from Monday, 05 December 2022, 5:00:00 PM UTC to Monday, 12 December 2022, 5:00:00 PM UTC"><g transform="translate(0.5,249.5)"><path class="background" aria-hidden="true" d="M0,0h0v0h0Z" pointer-events="none"/><g><g class="mark-text role-axis-label" pointer-events="none"><text text-anchor="middle" transform="translate(26.541666666666664,25)" font-family="&quot;Source Code Pro&quot;, monospace" font-size="12px" font-style="normal" font-weight="400" fill="#e6eaf1" opacity="1">Tue 06</text><text text-anchor="middle" transform="translate(72.04166666666667,25)" font-family="&quot;Source Code Pro&quot;, monospace" font-size="12px" font-style="normal" font-weight="400" fill="#e6eaf1" opacity="1">12 PM</text><text text-anchor="middle" transform="translate(117.54166666666667,25)" font-family="&quot;Source Code Pro&quot;, monospace" font-size="12px" font-style="normal" font-weight="400" fill="#e6eaf1" opacity="1">Wed 07</text><text text-anchor="middle" transform="translate(163.04166666666666,25)" font-family="&quot;Source Code Pro&quot;, monospace" font-size="12px" font-style="normal" font-weight="400" fill="#e6eaf1" opacity="1">12 PM</text><text text-anchor="middle" transform="translate(208.54166666666666,25)" font-family="&quot;Source Code Pro&quot;, monospace" font-size="12px" font-style="normal" font-weight="400" fill="#e6eaf1" opacity="1">Thu 08</text><text text-anchor="middle" transform="translate(254.04166666666669,25)" font-family="&quot;Source Code Pro&quot;, monospace" font-size="12px" font-style="normal" font-weight="400" fill="#e6eaf1" opacity="1">12 PM</text><text text-anchor="middle" transform="translate(299.5416666666667,25)" font-family="&quot;Source Code Pro&quot;, monospace" font-size="12px" font-style="normal" font-weight="400" fill="#e6eaf1" opacity="1">Fri 09</text><text text-anchor="middle" transform="translate(345.04166666666663,25)" font-family="&quot;Source Code Pro&quot;, monospace" font-size="12px" font-style="normal" font-weight="400" fill="#e6eaf1" opacity="1">12 PM</text><text text-anchor="middle" transform="translate(390.5416666666667,25)" font-family="&quot;Source Code Pro&quot;, monospace" font-size="12px" font-style="normal" font-weight="400" fill="#e6eaf1" opacity="1">Sat 10</text><text text-anchor="middle" transform="translate(436.0416666666667,25)" font-family="&quot;Source Code Pro&quot;, monospace" font-size="12px" font-style="normal" font-weight="400" fill="#e6eaf1" opacity="1">12 PM</text><text text-anchor="middle" transform="translate(481.54166666666663,25)" font-family="&quot;Source Code Pro&quot;, monospace" font-size="12px" font-style="normal" font-weight="400" fill="#e6eaf1" opacity="1">Dec 11</text><text text-anchor="middle" transform="translate(527.0416666666666,25)" font-family="&quot;Source Code Pro&quot;, monospace" font-size="12px" font-style="normal" font-weight="400" fill="#e6eaf1" opacity="1">12 PM</text><text text-anchor="middle" transform="translate(572.5416666666666,25)" font-family="&quot;Source Code Pro&quot;, monospace" font-size="12px" font-style="normal" font-weight="400" fill="#e6eaf1" opacity="1">Mon 12</text><text text-anchor="middle" transform="translate(618.0416666666666,25)" font-family="&quot;Source Code Pro&quot;, monospace" font-size="12px" font-style="normal" font-weight="400" fill="#e6eaf1" opacity="1">12 PM</text></g></g><path class="foreground" aria-hidden="true" d="" pointer-events="none" display="none"/></g></g><g class="mark-group role-axis" role="graphics-symbol" aria-roledescription="axis" aria-label="Y-axis for a linear scale with values from −25,000 to 25,000"><g transform="translate(0.5,0.5)"><path class="background" aria-hidden="true" d="M0,0h0v0h0Z" pointer-events="none"/><g><g class="mark-text role-axis-label" pointer-events="none"><text text-anchor="end" transform="translate(-16,228.1)" font-family="&quot;Source Code Pro&quot;, monospace" font-size="12px" font-style="normal" font-weight="400" fill="#e6eaf1" opacity="1">−20,000</text><text text-anchor="end" transform="translate(-16,178.29999999999998)" font-family="&quot;Source Code Pro&quot;, monospace" font-size="12px" font-style="normal" font-weight="400" fill="#e6eaf1" opacity="1">−10,000</text><text text-anchor="end" transform="translate(-16,128.5)" font-family="&quot;Source Code Pro&quot;, monospace" font-size="12px" font-style="normal" font-weight="400" fill="#e6eaf1" opacity="1">0</text><text text-anchor="end" transform="translate(-16,78.70000000000002)" font-family="&quot;Source Code Pro&quot;, monospace" font-size="12px" font-style="normal" font-weight="400" fill="#e6eaf1" opacity="1">10,000</text><text text-anchor="end" transform="translate(-16,28.899999999999995)" font-family="&quot;Source Code Pro&quot;, monospace" font-size="12px" font-style="normal" font-weight="400" fill="#e6eaf1" opacity="1">20,000</text></g></g><path class="foreground" aria-hidden="true" d="" pointer-events="none" display="none"/></g></g><g class="mark-group role-scope pathgroup" role="graphics-object" aria-roledescription="group mark container"><g transform="translate(0,0)"><path class="background" aria-hidden="true" d="M0,0h637v249h-637Z"/><g><g class="mark-line role-mark marks" clip-path="url(#clip19)" role="graphics-object" aria-roledescription="line mark container"><path aria-label="settlement_start: Dec 05, 2022; value: 23012.9;  : Cumm Generation Volume; label: Cumm Generation Volume" role="graphics-symbol" aria-roledescription="line mark" d="M0,9.895757999999987L1.8958333333333333,10.377158166000003L3.7916666666666665,11.851694333999992L5.6875,12.853296834000002L7.583333333333333,18.371676666000013L9.479166666666666,20.55507450000002L11.375,22.83881933400001L13.270833333333332,25.630233834000016L15.166666666666666,28.864080000000005L17.0625,33.485395499999996L18.958333333333332,36.870218333999965L20.854166666666668,38.805488166L22.75,45.037211166000006L24.645833333333336,48.351691500000015L26.541666666666664,49.00788966599997L28.4375,49.28755799999999L30.333333333333332,49.41940349999998L32.229166666666664,49.434219000000006L34.125,51.15933233399998L36.020833333333336,52.0495905L37.916666666666664,51.762161334000005L39.8125,52.4761275L41.708333333333336,52.324818666000006L43.60416666666667,51.68347733399998L45.5,50.77574783400002L47.395833333333336,48.151536834L49.29166666666667,39.342747L51.18750000000001,32.776409334000014L53.08333333333333,23.867936334L54.979166666666664,20.230627500000008L56.875,20.738712000000007L58.770833333333336,19.900329000000006L60.666666666666664,19.89314933400001L62.5625,20.36977716599998L64.45833333333333,19.327089665999978L66.35416666666667,20.751120666000013L68.25,20.19323616599999L70.14583333333333,19.497073499999978L72.04166666666667,19.62086783400002L73.9375,19.728311333999997L75.83333333333333,19.999970334000015L77.72916666666667,19.775496833999988L79.625,19.170302333999985L81.52083333333333,18.43641666600002L83.41666666666667,15.083091833999987L85.3125,12.996679500000015L87.20833333333334,10.322378166000002L89.10416666666667,9.019153499999977L91,7.745892000000006L92.89583333333334,7.351061165999982L94.79166666666667,7.2783531659999925L96.68749999999999,9.524913833999998L98.58333333333334,14.585589834L100.47916666666666,16.229114334000002L102.37500000000001,20.49340566600001L104.27083333333333,22.433987165999987L106.16666666666666,25.287527165999993L108.0625,29.375027999999993L109.95833333333333,32.30119283400002L111.85416666666666,37.59758916600001L113.75,43.24831200000001L115.64583333333333,45.59492933400001L117.54166666666667,46.578686999999995L119.4375,46.46613900000002L121.33333333333333,46.145551500000025L123.22916666666667,47.4562875L125.125,48.42219983399999L127.02083333333334,49.02299549999999L128.91666666666666,48.596126334L130.8125,48.08223216599999L132.70833333333334,48.87251633400001L134.60416666666666,49.19401716599997L136.5,48.277240500000005L138.39583333333334,45.8352975L140.29166666666666,40.375100999999994L142.1875,32.42718683399999L144.08333333333334,23.452687499999996L145.97916666666666,20.61595499999999L147.875,17.80893666600003L149.77083333333334,17.498309166000013L151.66666666666666,17.111902500000006L153.5625,16.98341849999999L155.45833333333334,17.806073165999987L157.35416666666669,18.58324349999999L159.25,18.25365066599999L161.14583333333331,17.822340833999966L163.04166666666666,17.728426500000012L164.93750000000003,17.077167000000014L166.83333333333334,16.262106833999997L168.72916666666666,15.784898333999973L170.625,16.309707666000016L172.52083333333331,16.11204299999999L174.41666666666669,14.363150166000008L176.3125,12.423605999999998L178.20833333333334,7.091354166000033L180.10416666666666,5.3171046659999766L182,5.395871334000011L183.89583333333331,5.446501500000025L185.79166666666669,5.420024333999987L187.6875,8.96694666600002L189.58333333333334,11.91655883400002L191.47916666666666,12.795902333999997L193.37499999999997,15.639275166000019L195.27083333333334,16.321742333999985L197.16666666666669,20.216351334000016L199.0625,25.459502999999994L200.95833333333331,28.406542499999993L202.85416666666666,33.66712416600003L204.75000000000003,37.56202349999998L206.64583333333334,40.31961533400003L208.54166666666666,41.192775665999996L210.4375,40.11643133400001L212.33333333333331,39.874278834L214.22916666666669,41.97990599999998L216.125,41.650603499999974L218.02083333333334,42.47147333399998L219.91666666666666,43.56765450000001L221.8125,44.16255683399999L223.70833333333331,43.5606825L225.60416666666669,43.04475450000001L227.5,41.40757950000001L229.39583333333334,39.24679883400001L231.29166666666666,32.52242933400001L233.18749999999997,27.22022333399997L235.08333333333334,16.953663000000002L236.97916666666669,16.269494166000033L238.875,14.508773333999988L240.77083333333331,13.985582999999991L242.66666666666666,13.170771834000009L244.56250000000003,13.329758333999978L246.45833333333334,14.43664650000001L248.35416666666666,15.052506666000022L250.25,16.375277334000003L252.14583333333331,17.166806999999995L254.04166666666669,16.490772000000018L255.9375,17.022677333999987L257.8333333333333,18.748455L259.7291666666667,18.74048700000002L261.625,16.650173333999973L263.5208333333333,17.00433450000001L265.4166666666667,16.498864500000014L267.3125,15.862586333999994L269.2083333333333,10.757630165999995L271.1041666666667,8.455085334000016L273,6.867585833999966L274.89583333333337,7.487969333999989L276.7916666666667,9.013385166000013L278.6875,10.235144999999987L280.5833333333333,12.924718499999992L282.47916666666663,15.074667665999996L284.375,16.882947000000016L286.2708333333333,17.50876716599998L288.1666666666667,21.706491834L290.0625,23.930394000000007L291.9583333333333,26.505261666000024L293.8541666666667,28.60570116599998L295.75,34.52165033400002L297.6458333333333,36.672678666L299.5416666666667,35.729715666000004L301.4375,35.9370495L303.3333333333333,37.55994833399998L305.2291666666667,39.076607333999995L307.125,40.94809133400002L309.0208333333333,41.539134665999974L310.9166666666667,42.647018333999966L312.8125,43.150122834000015L314.70833333333337,42.80301683399999L316.6041666666667,41.63977200000001L318.5,36.77389716599997L320.3958333333333,34.90129266600001L322.29166666666663,27.677345999999993L324.1875,23.172645666000008L326.0833333333333,13.944456666000034L327.97916666666663,11.920377000000013L329.87500000000006,9.285168665999992L331.77083333333337,8.958563333999981L333.6666666666667,10.031379833999992L335.5625,11.41681583399997L337.4583333333333,12.195480666L339.3541666666667,12.444024000000006L341.25,14.284258499999996L343.1458333333333,16.038629334L345.04166666666663,17.987386500000024L346.93749999999994,17.322141666000018L348.83333333333337,18.427577165999974L350.7291666666667,18.17592083399999L352.625,16.941420665999992L354.52083333333337,17.014667999999986L356.4166666666667,13.479200165999995L358.3125,12.250675499999987L360.2083333333333,11.5579575L362.10416666666663,10.975795499999984L364,11.434287666000005L365.8958333333333,11.410881666000023L367.79166666666663,10.145463665999989L369.68750000000006,11.031986334000003L371.58333333333337,13.903080833999974L373.4791666666667,16.01987166600003L375.375,19.942742165999977L377.2708333333333,21.168278333999965L379.1666666666667,22.387839000000017L381.0625,23.17841400000003L382.9583333333333,28.184185499999987L384.85416666666663,33.084048834L386.74999999999994,42.79691633400002L388.64583333333337,44.352212165999994L390.5416666666667,45.29554866599999L392.4375,44.954874833999995L394.33333333333337,44.944250999999994L396.2291666666667,46.36504499999999L398.125,46.113762666000014L400.0208333333333,46.797474833999985L401.91666666666663,48.66410333399997L403.8125,50.384112666000014L405.7083333333333,50.29957716599998L407.60416666666663,49.849011666000024L409.50000000000006,48.328700334000025L411.39583333333337,47.40885299999998L413.2916666666667,43.36816416600003L415.1875,40.991708166L417.0833333333333,34.733715666L418.9791666666667,31.69985783400003L420.875,29.976570665999994L422.7708333333333,28.77684683399999L424.66666666666663,27.70772400000001L426.56249999999994,28.01279033400001L428.45833333333337,28.43733533400003L430.3541666666667,28.645084499999996L432.25,27.13838549999999L434.14583333333337,27.403155665999996L436.0416666666667,28.685961834000004L437.9375,28.713725334000014L439.8333333333333,30.006699665999975L441.72916666666663,30.01939866599998L443.625,29.658887999999997L445.5208333333333,30.127007999999996L447.41666666666663,27.694859166000022L449.31250000000006,26.56813416600002L451.20833333333337,21.952711500000014L453.1041666666667,20.071724166000035L455,18.703136999999998L456.8958333333333,18.46160700000002L458.7916666666667,19.795914833999994L460.6875,20.428623833999996L462.5833333333333,23.896820334000026L464.47916666666663,25.089198665999998L466.37499999999994,28.703475000000005L468.27083333333337,28.95372000000001L470.1666666666667,32.77337999999999L472.0625,33.92342783400003L473.95833333333337,36.60719166600003L475.8541666666667,38.488427999999985L477.75,44.312164500000016L479.6458333333333,46.406544833999995L481.54166666666663,45.324722999999985L483.4375,45.49209233399998L485.3333333333333,46.47535200000001L487.22916666666663,46.88948033400002L489.12500000000006,48.07891200000001L491.02083333333337,49.835109L492.9166666666667,50.53737216599998L494.8125,50.73316883400001L496.7083333333333,51.46236533400001L498.6041666666667,51.85047366599999L500.5,51.52610933399999L502.3958333333333,51.436760166L504.29166666666663,49.937074500000016L506.18749999999994,48.175689834L508.08333333333337,48.69286283400003L509.9791666666667,45.36057900000002L511.875,41.283162666000024L513.7708333333334,38.760087L515.6666666666666,30.670118333999987L517.5625,30.23515716599998L519.4583333333334,28.812371166000005L521.3541666666666,28.67371950000002L523.25,28.193439833999992L525.1458333333333,27.781137666000003L527.0416666666666,26.991807666L528.9375,26.342664665999965L530.8333333333334,25.95260616599999L532.7291666666666,26.293652999999985L534.625,26.341170666000007L536.5208333333334,26.179943166L538.4166666666666,25.14567983399999L540.3125,24.214668834L542.2083333333334,19.890659333999995L544.1041666666666,17.678958665999996L546,16.45064166600003L547.8958333333334,17.873178665999998L549.7916666666667,18.749367834000033L551.6875,20.470995666000004L553.5833333333334,24.012729834L555.4791666666666,25.039274166000013L557.375,28.227594665999984L559.2708333333334,28.890681666000035L561.1666666666666,32.245998L563.0625,32.768898L564.9583333333333,35.160792L566.8541666666666,37.33360733399999L568.75,39.66740166600003L570.6458333333334,41.77489583399998L572.5416666666666,41.40894900000001L574.4375,39.319050665999995L576.3333333333334,38.191412334000006L578.2291666666666,39.60556650000002L580.125,41.3119635L582.0208333333334,42.38253900000003L583.9166666666666,42.799572666L585.8125,42.56937216599998L587.7083333333334,42.67781166600001L589.6041666666667,42.22201716599997L591.5,38.71659516600001L593.3958333333334,35.240388834L595.2916666666666,26.711391834000004L597.1875,23.705049000000024L599.0833333333334,15.932887499999994L600.9791666666666,14.029448333999973L602.875,12.29698950000002L604.7708333333333,11.130673499999988L606.6666666666666,10.885159500000004L608.5625,10.731816834000009L610.4583333333334,10.673841666000033L612.3541666666666,11.319539999999986L614.25,11.00082L616.1458333333334,11.29995216599997L618.0416666666666,10.400024333999992L619.9375,11.460266334000016L621.8333333333334,12.638078165999996L623.7291666666666,12.0895725L625.625,12.068697834000027L627.5208333333334,11.56314516600002L629.4166666666667,9.463659834000005L631.3125,8.053655999999982L633.2083333333334,6.428308499999977L635.1041666666666,4.39206966599997L637,3.5883803340000076" stroke="#0068c9" stroke-width="2"/></g></g><path class="foreground" aria-hidden="true" d="" display="none"/></g><g transform="translate(0,0)"><path class="background" aria-hidden="true" d="M0,0h637v249h-637Z"/><g><g class="mark-line role-mark marks" clip-path="url(#clip20)" role="graphics-object" aria-roledescription="line mark container"><path aria-label="settlement_start: Dec 05, 2022; value: −19036.25;  : Cumm Demand Volume; label: Cumm Demand Volume" role="graphics-symbol" aria-roledescription="line mark" d="M0,219.300525L1.8958333333333333,218.30577L3.7916666666666665,215.97853283400002L5.6875,214.1951535L7.583333333333333,210.581582334L9.479166666666666,208.110879834L11.375,205.813356834L13.270833333333332,202.88449433399998L15.166666666666666,201.84736800000002L17.0625,198.7733385L18.958333333333332,196.41285983400002L20.854166666666668,194.7806235L22.75,192.28149366600002L24.645833333333336,190.71495149999998L26.541666666666664,188.308656834L28.4375,188.873057166L30.333333333333332,189.04503300000002L32.229166666666664,188.434443666L34.125,187.45965L36.020833333333336,187.24302L37.916666666666664,187.0439445L39.8125,186.620976666L41.708333333333336,187.460397L43.60416666666667,187.301078334L45.5,188.73643883399998L47.395833333333336,191.59056L49.29166666666667,199.2247755L51.18750000000001,204.229385166L53.08333333333333,208.074443166L54.979166666666664,211.26678900000002L56.875,212.701776L58.770833333333336,214.385265L60.666666666666664,214.893723L62.5625,215.170611L64.45833333333333,214.295625L66.35416666666667,214.0552155L68.25,214.80209100000002L70.14583333333333,214.67534999999998L72.04166666666667,213.786378666L73.9375,213.57896166600003L75.83333333333333,214.196025L77.72916666666667,214.115930166L79.625,213.898635834L81.52083333333333,213.560577L83.41666666666667,214.914431334L85.3125,217.26287483399997L87.20833333333334,220.075205334L89.10416666666667,221.368968L91,220.703225166L92.89583333333334,219.839444166L94.79166666666667,217.673144166L96.68749999999999,215.9911905L98.58333333333334,214.072521L100.47916666666666,211.775828166L102.37500000000001,208.570202166L104.27083333333333,205.91266649999997L106.16666666666666,204.458298834L108.0625,201.284213166L109.95833333333333,199.85325149999997L111.85416666666666,197.30884500000002L113.75,193.997228166L115.64583333333333,192.3976935L117.54166666666667,190.863978L119.4375,191.124971334L121.33333333333333,190.25268300000002L123.22916666666667,189.357735666L125.125,188.18743566600003L127.02083333333334,188.626629834L128.91666666666666,188.465942166L130.8125,188.460173334L132.70833333333334,189.308226L134.60416666666666,189.656328L136.5,190.31580449999998L138.39583333333334,193.132907334L140.29166666666666,211.776533334L142.1875,218.505966L144.08333333333334,223.76555166600002L145.97916666666666,227.61060966600002L147.875,231.594941334L149.77083333333334,233.61072083399998L151.66666666666666,233.91773783399998L153.5625,234.041823L155.45833333333334,234.18528833399998L157.35416666666669,234.216413334L159.25,233.394755166L161.14583333333331,233.042544666L163.04166666666666,232.806783L164.93750000000003,232.8669165L166.83333333333334,233.084003166L168.72916666666666,232.96780283400003L170.625,232.142616834L172.52083333333331,231.874941834L174.41666666666669,233.46584466599998L176.3125,236.15421450000002L178.20833333333334,239.73172200000002L180.10416666666666,241.73276916600003L182,240.809808834L183.89583333333331,239.691051834L185.79166666666669,237.439179L187.6875,235.26018L189.58333333333334,231.666653334L191.47916666666666,228.864033834L193.37499999999997,226.99595316600002L195.27083333333334,223.731812166L197.16666666666669,221.211351L199.0625,217.626663834L200.95833333333331,214.4637L202.85416666666666,212.622386334L204.75000000000003,209.137382334L206.64583333333334,207.05980950000003L208.54166666666666,205.398771834L210.4375,205.691886666L212.33333333333331,204.754235334L214.22916666666669,203.6632005L216.125,202.990983666L218.02083333333334,202.678488666L219.91666666666666,201.56097666600002L221.8125,201.208973334L223.70833333333331,202.26543900000001L225.60416666666669,202.78921050000002L227.5,205.242732L229.39583333333334,208.494630666L231.29166666666666,213.434417166L233.18749999999997,219.51404250000002L235.08333333333334,223.5184605L236.97916666666669,227.414853834L238.875,229.3024815L240.77083333333331,231.448197666L242.66666666666666,232.888953L244.56250000000003,232.942404834L246.45833333333334,233.14123133400003L248.35416666666666,232.586625666L250.25,231.357021834L252.14583333333331,231.025686L254.04166666666669,231.42860933400001L255.9375,231.03975450000002L257.8333333333333,230.398122834L259.7291666666667,230.24154366599998L261.625,229.6976445L263.5208333333333,229.5723975L265.4166666666667,229.608792834L267.3125,232.175235834L269.2083333333333,235.299480666L271.1041666666667,237.410129166L273,237.9467655L274.89583333333337,236.903331L276.7916666666667,235.29599466599998L278.6875,232.956971334L280.5833333333333,229.9262265L282.47916666666663,227.04803549999997L284.375,225.21668183399998L286.2708333333333,221.930877834L288.1666666666667,218.767706334L290.0625,214.919577666L291.9583333333333,213.7668735L293.8541666666667,210.544730334L295.75,209.17012583399998L297.6458333333333,207.304908666L299.5416666666667,205.872038166L301.4375,206.2224225L303.3333333333333,204.043091334L305.2291666666667,203.1761565L307.125,202.564571166L309.0208333333333,202.860465834L310.9166666666667,202.426791L312.8125,202.489580334L314.70833333333337,203.068962L316.6041666666667,203.479895166L318.5,206.063021166L320.3958333333333,209.26802466599997L322.29166666666663,215.378816334L324.1875,221.32970916600001L326.0833333333333,226.23393L327.97916666666663,230.28354149999998L329.87500000000006,232.9901715L331.77083333333337,235.3379925L333.6666666666667,234.287337L335.5625,234.363198834L337.4583333333333,233.393925L339.3541666666667,232.74702299999998L341.25,230.413395L343.1458333333333,229.790895L345.04166666666663,231.29917116599998L346.93749999999994,230.678994834L348.83333333333337,228.09773633400002L350.7291666666667,227.71195266600003L352.625,230.194233666L354.52083333333337,229.3517835L356.4166666666667,231.121385166L358.3125,233.27780783400001L360.2083333333333,233.119776L362.10416666666663,234.917805L364,235.601973834L365.8958333333333,234.40876583399998L367.79166666666663,232.8313095L369.68750000000006,230.44634616599998L371.58333333333337,226.21890683400002L373.4791666666667,223.352585166L375.375,221.10942683399998L377.2708333333333,217.75647600000002L379.1666666666667,217.28511899999998L381.0625,213.8570115L382.9583333333333,213.78874416600001L384.85416666666663,211.448642166L386.74999999999994,203.4635025L388.64583333333337,201.2145345L390.5416666666667,199.199916834L392.4375,199.299185166L394.33333333333337,199.57196466599999L396.2291666666667,198.579450666L398.125,197.233398L400.0208333333333,196.887702834L401.91666666666663,195.285222L403.8125,194.847065166L405.7083333333333,195.058134L407.60416666666663,195.15765083399998L409.50000000000006,197.536929L411.39583333333337,198.59658983399999L413.2916666666667,200.5409895L415.1875,203.166528666L417.0833333333333,206.31185483399997L418.9791666666667,208.877136L420.875,210.569879334L422.7708333333333,214.03790999999998L424.66666666666663,213.847425L426.56249999999994,215.058975834L428.45833333333337,214.01491883399999L430.3541666666667,213.901209L432.25,213.891663834L434.14583333333337,213.83497500000001L436.0416666666667,212.999621334L437.9375,212.9083215L439.8333333333333,212.340477L441.72916666666663,212.190662166L443.625,211.377594L445.5208333333333,211.727978334L447.41666666666663,213.104574834L449.31250000000006,215.423511834L451.20833333333337,218.98686816600002L453.1041666666667,221.274638334L455,222.43136783399999L456.8958333333333,221.994705L458.7916666666667,221.188484334L460.6875,218.492271L462.5833333333333,214.767314166L464.47916666666663,212.63031299999997L466.37499999999994,210.570668166L468.27083333333337,208.558914L470.1666666666667,208.20545850000002L472.0625,205.6325415L473.95833333333337,205.83771750000002L475.8541666666667,203.750018334L477.75,197.116533834L479.6458333333333,192.144668166L481.54166666666663,188.5070685L483.4375,189.164387166L485.3333333333333,189.358109166L487.22916666666663,188.370284334L489.12500000000006,187.858589334L491.02083333333337,187.129683666L492.9166666666667,186.1353435L494.8125,185.763711L496.7083333333333,186.17700966599998L498.6041666666667,185.78504183400003L500.5,185.869868166L502.3958333333333,186.41430666600002L504.29166666666663,187.566222L506.18749999999994,188.820974334L508.08333333333337,189.79734516599999L509.9791666666667,191.539431834L511.875,193.194327666L513.7708333333334,196.1663085L515.6666666666666,198.511266L517.5625,200.492724834L519.4583333333334,202.335366666L521.3541666666666,203.11315950000002L523.25,203.237742666L525.1458333333333,203.997192666L527.0416666666666,204.434478L528.9375,204.861927834L530.8333333333334,204.0655845L532.7291666666666,204.267606666L534.625,204.592676166L536.5208333333334,204.871307166L538.4166666666666,205.325358666L540.3125,207.608439666L542.2083333333334,211.254504834L544.1041666666666,213.3991005L546,213.872490834L547.8958333333334,213.041246166L549.7916666666667,211.4280165L551.6875,209.12514000000002L553.5833333333334,206.93983283400001L555.4791666666666,204.750542166L557.375,203.02986900000002L559.2708333333334,200.776460334L561.1666666666666,199.22705783400002L563.0625,196.33338750000001L564.9583333333333,196.110740166L566.8541666666666,194.20850466599998L568.75,196.475027166L570.6458333333334,194.40728933399998L572.5416666666666,194.3645445L574.4375,195.2004375L576.3333333333334,195.191598L578.2291666666666,194.405463666L580.125,192.89685533399998L582.0208333333334,192.562739166L583.9166666666666,192.380055834L585.8125,192.276347334L587.7083333333334,193.09360716599997L589.6041666666667,193.01703966600002L591.5,196.376091L593.3958333333334,199.554492834L595.2916666666666,202.490825334L597.1875,207.40712316600002L599.0833333333334,210.9399765L600.9791666666666,215.53336266600002L602.875,217.408623L604.7708333333333,219.506780166L606.6666666666666,219.253920666L608.5625,219.85098083399998L610.4583333333334,219.335136L612.3541666666666,219.89675549999998L614.25,218.507211L616.1458333333334,218.256011334L618.0416666666666,218.499492L619.9375,218.36569583399998L621.8333333333334,217.68609216599998L623.7291666666666,217.237974834L625.625,216.84970116600002L627.5208333333334,216.632282334L629.4166666666667,217.828271166L631.3125,220.266603666L633.2083333333334,223.770075L635.1041666666666,225.307899L637,224.167395834" stroke="#83c9ff" stroke-width="2"/></g></g><path class="foreground" aria-hidden="true" d="" display="none"/></g></g><g class="mark-group role-legend" role="graphics-symbol" aria-roledescription="legend" aria-label="Symbol legend titled ' ' for stroke color with 2 values: Cumm Demand Volume, Cumm Generation Volume"><g transform="translate(0,286)"><path class="background" aria-hidden="true" d="M0,0h372v42h-372Z" pointer-events="none"/><g><g class="mark-group role-legend-entry"><g transform="translate(7,21)"><path class="background" aria-hidden="true" d="M0,0h0v0h0Z" pointer-events="none"/><g><g class="mark-group role-scope" role="graphics-object" aria-roledescription="group mark container"><g transform="translate(0,0)"><path class="background" aria-hidden="true" d="M0,0h169.1999969482422v14h-169.1999969482422Z" pointer-events="none" opacity="1"/><g><g class="mark-symbol role-legend-symbol" pointer-events="none"><path transform="translate(7,7)" d="M-5,0L5,0" stroke="#83c9ff" stroke-width="4" opacity="1"/></g><g class="mark-text role-legend-label" pointer-events="none"><text text-anchor="start" transform="translate(18,11)" font-family="&quot;Source Code Pro&quot;, monospace" font-size="14px" font-weight="400" fill="#e6eaf1" opacity="1">Cumm Demand Volume</text></g></g><path class="foreground" aria-hidden="true" d="" pointer-events="none" display="none"/></g><g transform="translate(180,0)"><path class="background" aria-hidden="true" d="M0,0h177.60000610351562v14h-177.60000610351562Z" pointer-events="none" opacity="1"/><g><g class="mark-symbol role-legend-symbol" pointer-events="none"><path transform="translate(7,7)" d="M-5,0L5,0" stroke="#0068c9" stroke-width="4" opacity="1"/></g><g class="mark-text role-legend-label" pointer-events="none"><text text-anchor="start" transform="translate(18,11)" font-family="&quot;Source Code Pro&quot;, monospace" font-size="14px" font-weight="400" fill="#e6eaf1" opacity="1">Cumm Generation Vo…</text></g></g><path class="foreground" aria-hidden="true" d="" pointer-events="none" display="none"/></g></g></g><path class="foreground" aria-hidden="true" d="" pointer-events="none" display="none"/></g></g><g class="mark-text role-legend-title" pointer-events="none"><text text-anchor="start" transform="translate(7,18)" font-family="&quot;Source Code Pro&quot;, monospace" font-size="14px" font-style="normal" font-weight="400" fill="#e6eaf1" opacity="1"/></g></g><path class="foreground" aria-hidden="true" d="" pointer-events="none" display="none"/></g></g></g><path class="foreground" aria-hidden="true" d="" display="none"/></g></g></g><defs><clipPath id="clip19"><rect x="0" y="0" width="637" height="249"/></clipPath><clipPath id="clip20"><rect x="0" y="0" width="637" height="249"/></clipPath></defs></svg>